  0
SECTION
  2
HEADER
  9
$ANGBASE
  50
0.0
  9
$ANGDIR
  70
1
  9
$MEASUREMENT
  70
1
  0
ENDSEC
  0
SECTION
  2
TABLES
  0
TABLE
  2
LTYPE
  70
4
  0
LTYPE
  5
40F
  2
CONTINUOUS
  70
0
  3
Solid line
  72
65
  73
0
  40
0.0
  0
LTYPE
  5
410
  2
DASHDOT
 70
0
  3
Dash Dot ____ _ ____ _
 72
65
 73
4
 40
2.0
 49
1.25
 49
-0.25
 49
0.25
 49
-0.25
  0
LTYPE
  5
411
  2
DASHED
 70
0
  3
Dashed __ __ __ __ __
 72
65
 73
2
 40
0.75
 49
0.5
 49
-0.25
  0
LTYPE
  5
43B
  2
DOTTED
 70
0
  3
Dotted .  .  .  .
 72
65
 73
2
 40
0.2
 49
0.0
 49
-0.2
  0
ENDTAB
  0
TABLE
  2
STYLE
  70
4
  0
STYLE
  2
KICAD
  70
0
  40
0
  41
1
  42
1
  50
0
  71
0
  3
isocp.shx
  0
STYLE
  2
KICADB
  70
0
  40
0
  41
1
  42
1
  50
0
  71
0
  3
isocp.shx
  0
STYLE
  2
KICADI
  70
0
  40
0
  41
1
  42
1
  50
15
  71
0
  3
isocp.shx
  0
STYLE
  2
KICADBI
  70
0
  40
0
  41
1
  42
1
  50
15
  71
0
  3
isocp.shx
  0
ENDTAB
  0
TABLE
  2
LAYER
  70
1
  0
LAYER
  2
BLACK
  70
0
  62
7
  6
CONTINUOUS
  0
ENDTAB
  0
ENDSEC
  0
SECTION
  2
ENTITIES
0
LINE
8
BLACK
6
CONTINUOUS
10
64.0097
20
-12.9267
11
64.013
21
-12.9261
0
LINE
8
BLACK
6
CONTINUOUS
10
64.013
20
-12.9261
11
64.0159
21
-12.9278
0
LINE
8
BLACK
6
CONTINUOUS
10
64.0159
20
-12.9278
11
64.0257
21
-12.9295
0
LINE
8
BLACK
6
CONTINUOUS
10
64.0257
20
-12.9295
11
64.0406
21
-12.942
0
LINE
8
BLACK
6
CONTINUOUS
10
64.0406
20
-12.942
11
64.0575
21
-12.9518
0
LINE
8
BLACK
6
CONTINUOUS
10
64.0575
20
-12.9518
11
64.0598
21
-12.9581
0
LINE
8
BLACK
6
CONTINUOUS
10
64.0598
20
-12.9581
11
64.065
21
-12.9625
0
LINE
8
BLACK
6
CONTINUOUS
10
64.065
20
-12.9625
11
64.0683
21
-12.9817
0
LINE
8
BLACK
6
CONTINUOUS
10
64.0683
20
-12.9817
11
64.075
21
-13
0
LINE
8
BLACK
6
CONTINUOUS
10
64.075
20
-13
11
64.075
21
-113
0
LINE
8
BLACK
6
CONTINUOUS
10
64.075
20
-113
11
64.0733
21
-113.01
0
LINE
8
BLACK
6
CONTINUOUS
10
64.0733
20
-113.01
11
64.0739
21
-113.013
0
LINE
8
BLACK
6
CONTINUOUS
10
64.0739
20
-113.013
11
64.0722
21
-113.016
0
LINE
8
BLACK
6
CONTINUOUS
10
64.0722
20
-113.016
11
64.0705
21
-113.026
0
LINE
8
BLACK
6
CONTINUOUS
10
64.0705
20
-113.026
11
64.058
21
-113.041
0
LINE
8
BLACK
6
CONTINUOUS
10
64.058
20
-113.041
11
64.0482
21
-113.057
0
LINE
8
BLACK
6
CONTINUOUS
10
64.0482
20
-113.057
11
64.0418
21
-113.06
0
LINE
8
BLACK
6
CONTINUOUS
10
64.0418
20
-113.06
11
64.0375
21
-113.065
0
LINE
8
BLACK
6
CONTINUOUS
10
64.0375
20
-113.065
11
64.0183
21
-113.068
0
LINE
8
BLACK
6
CONTINUOUS
10
64.0183
20
-113.068
11
64
21
-113.075
0
LINE
8
BLACK
6
CONTINUOUS
10
64
20
-113.075
11
13.5
21
-113.075
0
LINE
8
BLACK
6
CONTINUOUS
10
13.5
20
-113.075
11
13.4903
21
-113.073
0
LINE
8
BLACK
6
CONTINUOUS
10
13.4903
20
-113.073
11
13.487
21
-113.074
0
LINE
8
BLACK
6
CONTINUOUS
10
13.487
20
-113.074
11
13.4841
21
-113.072
0
LINE
8
BLACK
6
CONTINUOUS
10
13.4841
20
-113.072
11
13.4743
21
-113.07
0
LINE
8
BLACK
6
CONTINUOUS
10
13.4743
20
-113.07
11
13.4594
21
-113.058
0
LINE
8
BLACK
6
CONTINUOUS
10
13.4594
20
-113.058
11
13.4425
21
-113.048
0
LINE
8
BLACK
6
CONTINUOUS
10
13.4425
20
-113.048
11
13.4402
21
-113.042
0
LINE
8
BLACK
6
CONTINUOUS
10
13.4402
20
-113.042
11
13.435
21
-113.037
0
LINE
8
BLACK
6
CONTINUOUS
10
13.435
20
-113.037
11
13.4317
21
-113.018
0
LINE
8
BLACK
6
CONTINUOUS
10
13.4317
20
-113.018
11
13.425
21
-113
0
LINE
8
BLACK
6
CONTINUOUS
10
13.425
20
-113
11
13.425
21
-13
0
LINE
8
BLACK
6
CONTINUOUS
10
13.425
20
-13
11
13.4267
21
-12.9903
0
LINE
8
BLACK
6
CONTINUOUS
10
13.4267
20
-12.9903
11
13.4261
21
-12.987
0
LINE
8
BLACK
6
CONTINUOUS
10
13.4261
20
-12.987
11
13.4278
21
-12.9841
0
LINE
8
BLACK
6
CONTINUOUS
10
13.4278
20
-12.9841
11
13.4295
21
-12.9743
0
LINE
8
BLACK
6
CONTINUOUS
10
13.4295
20
-12.9743
11
13.442
21
-12.9594
0
LINE
8
BLACK
6
CONTINUOUS
10
13.442
20
-12.9594
11
13.4518
21
-12.9425
0
LINE
8
BLACK
6
CONTINUOUS
10
13.4518
20
-12.9425
11
13.4581
21
-12.9402
0
LINE
8
BLACK
6
CONTINUOUS
10
13.4581
20
-12.9402
11
13.4625
21
-12.935
0
LINE
8
BLACK
6
CONTINUOUS
10
13.4625
20
-12.935
11
13.4817
21
-12.9317
0
LINE
8
BLACK
6
CONTINUOUS
10
13.4817
20
-12.9317
11
13.5
21
-12.925
0
LINE
8
BLACK
6
CONTINUOUS
10
13.5
20
-12.925
11
64
21
-12.925
0
LINE
8
BLACK
6
CONTINUOUS
10
64
20
-12.925
11
64.0097
21
-12.9267
0
LINE
8
BLACK
6
CONTINUOUS
10
13.575
20
-13.075
11
13.575
21
-112.925
0
LINE
8
BLACK
6
CONTINUOUS
10
13.575
20
-112.925
11
63.925
21
-112.925
0
LINE
8
BLACK
6
CONTINUOUS
10
63.925
20
-112.925
11
63.925
21
-13.075
0
LINE
8
BLACK
6
CONTINUOUS
10
63.925
20
-13.075
11
13.575
21
-13.075
0
LINE
8
BLACK
6
CONTINUOUS
10
32.5097
20
-76.4267
11
32.513
21
-76.4261
0
LINE
8
BLACK
6
CONTINUOUS
10
32.513
20
-76.4261
11
32.5159
21
-76.4278
0
LINE
8
BLACK
6
CONTINUOUS
10
32.5159
20
-76.4278
11
32.5257
21
-76.4295
0
LINE
8
BLACK
6
CONTINUOUS
10
32.5257
20
-76.4295
11
32.5406
21
-76.442
0
LINE
8
BLACK
6
CONTINUOUS
10
32.5406
20
-76.442
11
32.5575
21
-76.4518
0
LINE
8
BLACK
6
CONTINUOUS
10
32.5575
20
-76.4518
11
32.5598
21
-76.4582
0
LINE
8
BLACK
6
CONTINUOUS
10
32.5598
20
-76.4582
11
32.565
21
-76.4625
0
LINE
8
BLACK
6
CONTINUOUS
10
32.565
20
-76.4625
11
32.5683
21
-76.4817
0
LINE
8
BLACK
6
CONTINUOUS
10
32.5683
20
-76.4817
11
32.575
21
-76.5
0
LINE
8
BLACK
6
CONTINUOUS
10
32.575
20
-76.5
11
32.575
21
-83.5
0
LINE
8
BLACK
6
CONTINUOUS
10
32.575
20
-83.5
11
32.5733
21
-83.5097
0
LINE
8
BLACK
6
CONTINUOUS
10
32.5733
20
-83.5097
11
32.5739
21
-83.513
0
LINE
8
BLACK
6
CONTINUOUS
10
32.5739
20
-83.513
11
32.5722
21
-83.5159
0
LINE
8
BLACK
6
CONTINUOUS
10
32.5722
20
-83.5159
11
32.5705
21
-83.5257
0
LINE
8
BLACK
6
CONTINUOUS
10
32.5705
20
-83.5257
11
32.558
21
-83.5406
0
LINE
8
BLACK
6
CONTINUOUS
10
32.558
20
-83.5406
11
32.5482
21
-83.5575
0
LINE
8
BLACK
6
CONTINUOUS
10
32.5482
20
-83.5575
11
32.5418
21
-83.5598
0
LINE
8
BLACK
6
CONTINUOUS
10
32.5418
20
-83.5598
11
32.5375
21
-83.565
0
LINE
8
BLACK
6
CONTINUOUS
10
32.5375
20
-83.565
11
32.5183
21
-83.5683
0
LINE
8
BLACK
6
CONTINUOUS
10
32.5183
20
-83.5683
11
32.5
21
-83.575
0
LINE
8
BLACK
6
CONTINUOUS
10
32.5
20
-83.575
11
20.5
21
-83.575
0
LINE
8
BLACK
6
CONTINUOUS
10
20.5
20
-83.575
11
20.4903
21
-83.5733
0
LINE
8
BLACK
6
CONTINUOUS
10
20.4903
20
-83.5733
11
20.487
21
-83.5739
0
LINE
8
BLACK
6
CONTINUOUS
10
20.487
20
-83.5739
11
20.4841
21
-83.5722
0
LINE
8
BLACK
6
CONTINUOUS
10
20.4841
20
-83.5722
11
20.4743
21
-83.5705
0
LINE
8
BLACK
6
CONTINUOUS
10
20.4743
20
-83.5705
11
20.4594
21
-83.558
0
LINE
8
BLACK
6
CONTINUOUS
10
20.4594
20
-83.558
11
20.4425
21
-83.5482
0
LINE
8
BLACK
6
CONTINUOUS
10
20.4425
20
-83.5482
11
20.4402
21
-83.5418
0
LINE
8
BLACK
6
CONTINUOUS
10
20.4402
20
-83.5418
11
20.435
21
-83.5375
0
LINE
8
BLACK
6
CONTINUOUS
10
20.435
20
-83.5375
11
20.4317
21
-83.5183
0
LINE
8
BLACK
6
CONTINUOUS
10
20.4317
20
-83.5183
11
20.425
21
-83.5
0
LINE
8
BLACK
6
CONTINUOUS
10
20.425
20
-83.5
11
20.425
21
-76.5
0
LINE
8
BLACK
6
CONTINUOUS
10
20.425
20
-76.5
11
20.4267
21
-76.4903
0
LINE
8
BLACK
6
CONTINUOUS
10
20.4267
20
-76.4903
11
20.4261
21
-76.487
0
LINE
8
BLACK
6
CONTINUOUS
10
20.4261
20
-76.487
11
20.4278
21
-76.4841
0
LINE
8
BLACK
6
CONTINUOUS
10
20.4278
20
-76.4841
11
20.4295
21
-76.4743
0
LINE
8
BLACK
6
CONTINUOUS
10
20.4295
20
-76.4743
11
20.442
21
-76.4594
0
LINE
8
BLACK
6
CONTINUOUS
10
20.442
20
-76.4594
11
20.4518
21
-76.4425
0
LINE
8
BLACK
6
CONTINUOUS
10
20.4518
20
-76.4425
11
20.4581
21
-76.4402
0
LINE
8
BLACK
6
CONTINUOUS
10
20.4581
20
-76.4402
11
20.4625
21
-76.435
0
LINE
8
BLACK
6
CONTINUOUS
10
20.4625
20
-76.435
11
20.4817
21
-76.4317
0
LINE
8
BLACK
6
CONTINUOUS
10
20.4817
20
-76.4317
11
20.5
21
-76.425
0
LINE
8
BLACK
6
CONTINUOUS
10
20.5
20
-76.425
11
32.5
21
-76.425
0
LINE
8
BLACK
6
CONTINUOUS
10
32.5
20
-76.425
11
32.5097
21
-76.4267
0
LINE
8
BLACK
6
CONTINUOUS
10
20.575
20
-76.575
11
20.575
21
-83.425
0
LINE
8
BLACK
6
CONTINUOUS
10
20.575
20
-83.425
11
32.425
21
-83.425
0
LINE
8
BLACK
6
CONTINUOUS
10
32.425
20
-83.425
11
32.425
21
-76.575
0
LINE
8
BLACK
6
CONTINUOUS
10
32.425
20
-76.575
11
20.575
21
-76.575
0
LINE
8
BLACK
6
CONTINUOUS
10
31.0097
20
-26.9267
11
31.013
21
-26.9261
0
LINE
8
BLACK
6
CONTINUOUS
10
31.013
20
-26.9261
11
31.0159
21
-26.9278
0
LINE
8
BLACK
6
CONTINUOUS
10
31.0159
20
-26.9278
11
31.0257
21
-26.9295
0
LINE
8
BLACK
6
CONTINUOUS
10
31.0257
20
-26.9295
11
31.0406
21
-26.942
0
LINE
8
BLACK
6
CONTINUOUS
10
31.0406
20
-26.942
11
31.0575
21
-26.9518
0
LINE
8
BLACK
6
CONTINUOUS
10
31.0575
20
-26.9518
11
31.0598
21
-26.9581
0
LINE
8
BLACK
6
CONTINUOUS
10
31.0598
20
-26.9581
11
31.065
21
-26.9625
0
LINE
8
BLACK
6
CONTINUOUS
10
31.065
20
-26.9625
11
31.0683
21
-26.9817
0
LINE
8
BLACK
6
CONTINUOUS
10
31.0683
20
-26.9817
11
31.075
21
-27
0
LINE
8
BLACK
6
CONTINUOUS
10
31.075
20
-27
11
31.075
21
-34
0
LINE
8
BLACK
6
CONTINUOUS
10
31.075
20
-34
11
31.0733
21
-34.0097
0
LINE
8
BLACK
6
CONTINUOUS
10
31.0733
20
-34.0097
11
31.0739
21
-34.013
0
LINE
8
BLACK
6
CONTINUOUS
10
31.0739
20
-34.013
11
31.0722
21
-34.0159
0
LINE
8
BLACK
6
CONTINUOUS
10
31.0722
20
-34.0159
11
31.0705
21
-34.0257
0
LINE
8
BLACK
6
CONTINUOUS
10
31.0705
20
-34.0257
11
31.058
21
-34.0406
0
LINE
8
BLACK
6
CONTINUOUS
10
31.058
20
-34.0406
11
31.0482
21
-34.0575
0
LINE
8
BLACK
6
CONTINUOUS
10
31.0482
20
-34.0575
11
31.0419
21
-34.0598
0
LINE
8
BLACK
6
CONTINUOUS
10
31.0419
20
-34.0598
11
31.0375
21
-34.065
0
LINE
8
BLACK
6
CONTINUOUS
10
31.0375
20
-34.065
11
31.0183
21
-34.0683
0
LINE
8
BLACK
6
CONTINUOUS
10
31.0183
20
-34.0683
11
31
21
-34.075
0
LINE
8
BLACK
6
CONTINUOUS
10
31
20
-34.075
11
21.5
21
-34.075
0
LINE
8
BLACK
6
CONTINUOUS
10
21.5
20
-34.075
11
21.4903
21
-34.0733
0
LINE
8
BLACK
6
CONTINUOUS
10
21.4903
20
-34.0733
11
21.487
21
-34.0739
0
LINE
8
BLACK
6
CONTINUOUS
10
21.487
20
-34.0739
11
21.4841
21
-34.0722
0
LINE
8
BLACK
6
CONTINUOUS
10
21.4841
20
-34.0722
11
21.4743
21
-34.0705
0
LINE
8
BLACK
6
CONTINUOUS
10
21.4743
20
-34.0705
11
21.4594
21
-34.058
0
LINE
8
BLACK
6
CONTINUOUS
10
21.4594
20
-34.058
11
21.4425
21
-34.0482
0
LINE
8
BLACK
6
CONTINUOUS
10
21.4425
20
-34.0482
11
21.4402
21
-34.0418
0
LINE
8
BLACK
6
CONTINUOUS
10
21.4402
20
-34.0418
11
21.435
21
-34.0375
0
LINE
8
BLACK
6
CONTINUOUS
10
21.435
20
-34.0375
11
21.4317
21
-34.0183
0
LINE
8
BLACK
6
CONTINUOUS
10
21.4317
20
-34.0183
11
21.425
21
-34
0
LINE
8
BLACK
6
CONTINUOUS
10
21.425
20
-34
11
21.425
21
-27
0
LINE
8
BLACK
6
CONTINUOUS
10
21.425
20
-27
11
21.4267
21
-26.9903
0
LINE
8
BLACK
6
CONTINUOUS
10
21.4267
20
-26.9903
11
21.4261
21
-26.987
0
LINE
8
BLACK
6
CONTINUOUS
10
21.4261
20
-26.987
11
21.4278
21
-26.9841
0
LINE
8
BLACK
6
CONTINUOUS
10
21.4278
20
-26.9841
11
21.4295
21
-26.9743
0
LINE
8
BLACK
6
CONTINUOUS
10
21.4295
20
-26.9743
11
21.442
21
-26.9594
0
LINE
8
BLACK
6
CONTINUOUS
10
21.442
20
-26.9594
11
21.4518
21
-26.9425
0
LINE
8
BLACK
6
CONTINUOUS
10
21.4518
20
-26.9425
11
21.4581
21
-26.9402
0
LINE
8
BLACK
6
CONTINUOUS
10
21.4581
20
-26.9402
11
21.4625
21
-26.935
0
LINE
8
BLACK
6
CONTINUOUS
10
21.4625
20
-26.935
11
21.4817
21
-26.9317
0
LINE
8
BLACK
6
CONTINUOUS
10
21.4817
20
-26.9317
11
21.5
21
-26.925
0
LINE
8
BLACK
6
CONTINUOUS
10
21.5
20
-26.925
11
31
21
-26.925
0
LINE
8
BLACK
6
CONTINUOUS
10
31
20
-26.925
11
31.0097
21
-26.9267
0
LINE
8
BLACK
6
CONTINUOUS
10
21.575
20
-27.075
11
21.575
21
-33.925
0
LINE
8
BLACK
6
CONTINUOUS
10
21.575
20
-33.925
11
30.925
21
-33.925
0
LINE
8
BLACK
6
CONTINUOUS
10
30.925
20
-33.925
11
30.925
21
-27.075
0
LINE
8
BLACK
6
CONTINUOUS
10
30.925
20
-27.075
11
21.575
21
-27.075
0
LINE
8
BLACK
6
CONTINUOUS
10
15.4545
20
-98.9978
11
15.5521
21
-98.7623
0
LINE
8
BLACK
6
CONTINUOUS
10
15.5521
20
-98.7623
11
15.6853
21
-98.5448
0
LINE
8
BLACK
6
CONTINUOUS
10
15.6853
20
-98.5448
11
15.851
21
-98.351
0
LINE
8
BLACK
6
CONTINUOUS
10
15.851
20
-98.351
11
16.0448
21
-98.1853
0
LINE
8
BLACK
6
CONTINUOUS
10
16.0448
20
-98.1853
11
16.2623
21
-98.0521
0
LINE
8
BLACK
6
CONTINUOUS
10
16.2623
20
-98.0521
11
16.4978
21
-97.9545
0
LINE
8
BLACK
6
CONTINUOUS
10
16.4978
20
-97.9545
11
16.7458
21
-97.895
0
LINE
8
BLACK
6
CONTINUOUS
10
16.7458
20
-97.895
11
17
21
-97.875
0
LINE
8
BLACK
6
CONTINUOUS
10
17
20
-97.875
11
17.2542
21
-97.895
0
LINE
8
BLACK
6
CONTINUOUS
10
17.2542
20
-97.895
11
17.5022
21
-97.9545
0
LINE
8
BLACK
6
CONTINUOUS
10
17.5022
20
-97.9545
11
17.7377
21
-98.0521
0
LINE
8
BLACK
6
CONTINUOUS
10
17.7377
20
-98.0521
11
17.9552
21
-98.1853
0
LINE
8
BLACK
6
CONTINUOUS
10
17.9552
20
-98.1853
11
18.149
21
-98.351
0
LINE
8
BLACK
6
CONTINUOUS
10
18.149
20
-98.351
11
18.3147
21
-98.5448
0
LINE
8
BLACK
6
CONTINUOUS
10
18.3147
20
-98.5448
11
18.4479
21
-98.7623
0
LINE
8
BLACK
6
CONTINUOUS
10
18.4479
20
-98.7623
11
18.5455
21
-98.9978
0
LINE
8
BLACK
6
CONTINUOUS
10
18.5455
20
-98.9978
11
18.605
21
-99.2458
0
LINE
8
BLACK
6
CONTINUOUS
10
18.605
20
-99.2458
11
18.625
21
-99.5
0
LINE
8
BLACK
6
CONTINUOUS
10
18.625
20
-99.5
11
18.605
21
-99.7542
0
LINE
8
BLACK
6
CONTINUOUS
10
18.605
20
-99.7542
11
18.5455
21
-100.002
0
LINE
8
BLACK
6
CONTINUOUS
10
18.5455
20
-100.002
11
18.4479
21
-100.238
0
LINE
8
BLACK
6
CONTINUOUS
10
18.4479
20
-100.238
11
18.3147
21
-100.455
0
LINE
8
BLACK
6
CONTINUOUS
10
18.3147
20
-100.455
11
18.149
21
-100.649
0
LINE
8
BLACK
6
CONTINUOUS
10
18.149
20
-100.649
11
17.9552
21
-100.815
0
LINE
8
BLACK
6
CONTINUOUS
10
17.9552
20
-100.815
11
17.7377
21
-100.948
0
LINE
8
BLACK
6
CONTINUOUS
10
17.7377
20
-100.948
11
17.5022
21
-101.045
0
LINE
8
BLACK
6
CONTINUOUS
10
17.5022
20
-101.045
11
17.2542
21
-101.105
0
LINE
8
BLACK
6
CONTINUOUS
10
17.2542
20
-101.105
11
17
21
-101.125
0
LINE
8
BLACK
6
CONTINUOUS
10
17
20
-101.125
11
16.7458
21
-101.105
0
LINE
8
BLACK
6
CONTINUOUS
10
16.7458
20
-101.105
11
16.4978
21
-101.045
0
LINE
8
BLACK
6
CONTINUOUS
10
16.4978
20
-101.045
11
16.2623
21
-100.948
0
LINE
8
BLACK
6
CONTINUOUS
10
16.2623
20
-100.948
11
16.0448
21
-100.815
0
LINE
8
BLACK
6
CONTINUOUS
10
16.0448
20
-100.815
11
15.851
21
-100.649
0
LINE
8
BLACK
6
CONTINUOUS
10
15.851
20
-100.649
11
15.6853
21
-100.455
0
LINE
8
BLACK
6
CONTINUOUS
10
15.6853
20
-100.455
11
15.5521
21
-100.238
0
LINE
8
BLACK
6
CONTINUOUS
10
15.5521
20
-100.238
11
15.4545
21
-100.002
0
LINE
8
BLACK
6
CONTINUOUS
10
15.4545
20
-100.002
11
15.395
21
-99.7542
0
LINE
8
BLACK
6
CONTINUOUS
10
15.395
20
-99.7542
11
15.375
21
-99.5
0
LINE
8
BLACK
6
CONTINUOUS
10
15.375
20
-99.5
11
15.3778
21
-99.4638
0
LINE
8
BLACK
6
CONTINUOUS
10
15.3778
20
-99.4638
11
15.395
21
-99.2458
0
LINE
8
BLACK
6
CONTINUOUS
10
15.395
20
-99.2458
11
15.4545
21
-98.9978
0
LINE
8
BLACK
6
CONTINUOUS
10
15.5877
20
-99.9426
11
15.6789
21
-100.167
0
LINE
8
BLACK
6
CONTINUOUS
10
15.6789
20
-100.167
11
15.8057
21
-100.374
0
LINE
8
BLACK
6
CONTINUOUS
10
15.8057
20
-100.374
11
15.9645
21
-100.557
0
LINE
8
BLACK
6
CONTINUOUS
10
15.9645
20
-100.557
11
16.1511
21
-100.712
0
LINE
8
BLACK
6
CONTINUOUS
10
16.1511
20
-100.712
11
16.3605
21
-100.835
0
LINE
8
BLACK
6
CONTINUOUS
10
16.3605
20
-100.835
11
16.5871
21
-100.921
0
LINE
8
BLACK
6
CONTINUOUS
10
16.5871
20
-100.921
11
16.8248
21
-100.97
0
LINE
8
BLACK
6
CONTINUOUS
10
16.8248
20
-100.97
11
17.0671
21
-100.979
0
LINE
8
BLACK
6
CONTINUOUS
10
17.0671
20
-100.979
11
17.3077
21
-100.948
0
LINE
8
BLACK
6
CONTINUOUS
10
17.3077
20
-100.948
11
17.54
21
-100.878
0
LINE
8
BLACK
6
CONTINUOUS
10
17.54
20
-100.878
11
17.7579
21
-100.771
0
LINE
8
BLACK
6
CONTINUOUS
10
17.7579
20
-100.771
11
17.9553
21
-100.63
0
LINE
8
BLACK
6
CONTINUOUS
10
17.9553
20
-100.63
11
18.1271
21
-100.459
0
LINE
8
BLACK
6
CONTINUOUS
10
18.1271
20
-100.459
11
18.2687
21
-100.262
0
LINE
8
BLACK
6
CONTINUOUS
10
18.2687
20
-100.262
11
18.3761
21
-100.045
0
LINE
8
BLACK
6
CONTINUOUS
10
18.3761
20
-100.045
11
18.4466
21
-99.8128
0
LINE
8
BLACK
6
CONTINUOUS
10
18.4466
20
-99.8128
11
18.4783
21
-99.5723
0
LINE
8
BLACK
6
CONTINUOUS
10
18.4783
20
-99.5723
11
18.4801
21
-99.5
0
LINE
8
BLACK
6
CONTINUOUS
10
18.4801
20
-99.5
11
18.4602
21
-99.2583
0
LINE
8
BLACK
6
CONTINUOUS
10
18.4602
20
-99.2583
11
18.4011
21
-99.023
0
LINE
8
BLACK
6
CONTINUOUS
10
18.4011
20
-99.023
11
18.3044
21
-98.8006
0
LINE
8
BLACK
6
CONTINUOUS
10
18.3044
20
-98.8006
11
18.1726
21
-98.597
0
LINE
8
BLACK
6
CONTINUOUS
10
18.1726
20
-98.597
11
18.0094
21
-98.4176
0
LINE
8
BLACK
6
CONTINUOUS
10
18.0094
20
-98.4176
11
17.8191
21
-98.2672
0
LINE
8
BLACK
6
CONTINUOUS
10
17.8191
20
-98.2672
11
17.6067
21
-98.15
0
LINE
8
BLACK
6
CONTINUOUS
10
17.6067
20
-98.15
11
17.3781
21
-98.069
0
LINE
8
BLACK
6
CONTINUOUS
10
17.3781
20
-98.069
11
17.1393
21
-98.0265
0
LINE
8
BLACK
6
CONTINUOUS
10
17.1393
20
-98.0265
11
16.8968
21
-98.0236
0
LINE
8
BLACK
6
CONTINUOUS
10
16.8968
20
-98.0236
11
16.657
21
-98.0602
0
LINE
8
BLACK
6
CONTINUOUS
10
16.657
20
-98.0602
11
16.4265
21
-98.1356
0
LINE
8
BLACK
6
CONTINUOUS
10
16.4265
20
-98.1356
11
16.2113
21
-98.2476
0
LINE
8
BLACK
6
CONTINUOUS
10
16.2113
20
-98.2476
11
16.0174
21
-98.3932
0
LINE
8
BLACK
6
CONTINUOUS
10
16.0174
20
-98.3932
11
15.8498
21
-98.5686
0
LINE
8
BLACK
6
CONTINUOUS
10
15.8498
20
-98.5686
11
15.7131
21
-98.7689
0
LINE
8
BLACK
6
CONTINUOUS
10
15.7131
20
-98.7689
11
15.611
21
-98.9889
0
LINE
8
BLACK
6
CONTINUOUS
10
15.611
20
-98.9889
11
15.5462
21
-99.2227
0
LINE
8
BLACK
6
CONTINUOUS
10
15.5462
20
-99.2227
11
15.5204
21
-99.4638
0
LINE
8
BLACK
6
CONTINUOUS
10
15.5204
20
-99.4638
11
15.5343
21
-99.706
0
LINE
8
BLACK
6
CONTINUOUS
10
15.5343
20
-99.706
11
15.5877
21
-99.9426
0
LINE
8
BLACK
6
CONTINUOUS
10
53.6553
20
-86.7359
11
53.7549
21
-86.3644
0
LINE
8
BLACK
6
CONTINUOUS
10
53.7549
20
-86.3644
11
53.8927
21
-86.0052
0
LINE
8
BLACK
6
CONTINUOUS
10
53.8927
20
-86.0052
11
54.0674
21
-85.6625
0
LINE
8
BLACK
6
CONTINUOUS
10
54.0674
20
-85.6625
11
54.2769
21
-85.3399
0
LINE
8
BLACK
6
CONTINUOUS
10
54.2769
20
-85.3399
11
54.5189
21
-85.0409
0
LINE
8
BLACK
6
CONTINUOUS
10
54.5189
20
-85.0409
11
54.7909
21
-84.7689
0
LINE
8
BLACK
6
CONTINUOUS
10
54.7909
20
-84.7689
11
55.0899
21
-84.5269
0
LINE
8
BLACK
6
CONTINUOUS
10
55.0899
20
-84.5269
11
55.4125
21
-84.3174
0
LINE
8
BLACK
6
CONTINUOUS
10
55.4125
20
-84.3174
11
55.7552
21
-84.1427
0
LINE
8
BLACK
6
CONTINUOUS
10
55.7552
20
-84.1427
11
56.1144
21
-84.0049
0
LINE
8
BLACK
6
CONTINUOUS
10
56.1144
20
-84.0049
11
56.4859
21
-83.9053
0
LINE
8
BLACK
6
CONTINUOUS
10
56.4859
20
-83.9053
11
56.8659
21
-83.8451
0
LINE
8
BLACK
6
CONTINUOUS
10
56.8659
20
-83.8451
11
57.25
21
-83.825
0
LINE
8
BLACK
6
CONTINUOUS
10
57.25
20
-83.825
11
57.6341
21
-83.8451
0
LINE
8
BLACK
6
CONTINUOUS
10
57.6341
20
-83.8451
11
58.0141
21
-83.9053
0
LINE
8
BLACK
6
CONTINUOUS
10
58.0141
20
-83.9053
11
58.3856
21
-84.0049
0
LINE
8
BLACK
6
CONTINUOUS
10
58.3856
20
-84.0049
11
58.7448
21
-84.1427
0
LINE
8
BLACK
6
CONTINUOUS
10
58.7448
20
-84.1427
11
59.0875
21
-84.3174
0
LINE
8
BLACK
6
CONTINUOUS
10
59.0875
20
-84.3174
11
59.4101
21
-84.5269
0
LINE
8
BLACK
6
CONTINUOUS
10
59.4101
20
-84.5269
11
59.7091
21
-84.7689
0
LINE
8
BLACK
6
CONTINUOUS
10
59.7091
20
-84.7689
11
59.9811
21
-85.0409
0
LINE
8
BLACK
6
CONTINUOUS
10
59.9811
20
-85.0409
11
60.2231
21
-85.3399
0
LINE
8
BLACK
6
CONTINUOUS
10
60.2231
20
-85.3399
11
60.4326
21
-85.6625
0
LINE
8
BLACK
6
CONTINUOUS
10
60.4326
20
-85.6625
11
60.6073
21
-86.0052
0
LINE
8
BLACK
6
CONTINUOUS
10
60.6073
20
-86.0052
11
60.7451
21
-86.3644
0
LINE
8
BLACK
6
CONTINUOUS
10
60.7451
20
-86.3644
11
60.8447
21
-86.7359
0
LINE
8
BLACK
6
CONTINUOUS
10
60.8447
20
-86.7359
11
60.9049
21
-87.1159
0
LINE
8
BLACK
6
CONTINUOUS
10
60.9049
20
-87.1159
11
60.925
21
-87.5
0
LINE
8
BLACK
6
CONTINUOUS
10
60.925
20
-87.5
11
60.9049
21
-87.8841
0
LINE
8
BLACK
6
CONTINUOUS
10
60.9049
20
-87.8841
11
60.8447
21
-88.2641
0
LINE
8
BLACK
6
CONTINUOUS
10
60.8447
20
-88.2641
11
60.7451
21
-88.6356
0
LINE
8
BLACK
6
CONTINUOUS
10
60.7451
20
-88.6356
11
60.6073
21
-88.9948
0
LINE
8
BLACK
6
CONTINUOUS
10
60.6073
20
-88.9948
11
60.4326
21
-89.3375
0
LINE
8
BLACK
6
CONTINUOUS
10
60.4326
20
-89.3375
11
60.2231
21
-89.6601
0
LINE
8
BLACK
6
CONTINUOUS
10
60.2231
20
-89.6601
11
59.9811
21
-89.9591
0
LINE
8
BLACK
6
CONTINUOUS
10
59.9811
20
-89.9591
11
59.7091
21
-90.2311
0
LINE
8
BLACK
6
CONTINUOUS
10
59.7091
20
-90.2311
11
59.4101
21
-90.4731
0
LINE
8
BLACK
6
CONTINUOUS
10
59.4101
20
-90.4731
11
59.0875
21
-90.6826
0
LINE
8
BLACK
6
CONTINUOUS
10
59.0875
20
-90.6826
11
58.7448
21
-90.8573
0
LINE
8
BLACK
6
CONTINUOUS
10
58.7448
20
-90.8573
11
58.3856
21
-90.9951
0
LINE
8
BLACK
6
CONTINUOUS
10
58.3856
20
-90.9951
11
58.0141
21
-91.0947
0
LINE
8
BLACK
6
CONTINUOUS
10
58.0141
20
-91.0947
11
57.6341
21
-91.1549
0
LINE
8
BLACK
6
CONTINUOUS
10
57.6341
20
-91.1549
11
57.25
21
-91.175
0
LINE
8
BLACK
6
CONTINUOUS
10
57.25
20
-91.175
11
56.8659
21
-91.1549
0
LINE
8
BLACK
6
CONTINUOUS
10
56.8659
20
-91.1549
11
56.4859
21
-91.0947
0
LINE
8
BLACK
6
CONTINUOUS
10
56.4859
20
-91.0947
11
56.1144
21
-90.9951
0
LINE
8
BLACK
6
CONTINUOUS
10
56.1144
20
-90.9951
11
55.7552
21
-90.8573
0
LINE
8
BLACK
6
CONTINUOUS
10
55.7552
20
-90.8573
11
55.4125
21
-90.6826
0
LINE
8
BLACK
6
CONTINUOUS
10
55.4125
20
-90.6826
11
55.0899
21
-90.4731
0
LINE
8
BLACK
6
CONTINUOUS
10
55.0899
20
-90.4731
11
54.7909
21
-90.2311
0
LINE
8
BLACK
6
CONTINUOUS
10
54.7909
20
-90.2311
11
54.5189
21
-89.9591
0
LINE
8
BLACK
6
CONTINUOUS
10
54.5189
20
-89.9591
11
54.2769
21
-89.6601
0
LINE
8
BLACK
6
CONTINUOUS
10
54.2769
20
-89.6601
11
54.0674
21
-89.3375
0
LINE
8
BLACK
6
CONTINUOUS
10
54.0674
20
-89.3375
11
53.8927
21
-88.9948
0
LINE
8
BLACK
6
CONTINUOUS
10
53.8927
20
-88.9948
11
53.7549
21
-88.6356
0
LINE
8
BLACK
6
CONTINUOUS
10
53.7549
20
-88.6356
11
53.6553
21
-88.2641
0
LINE
8
BLACK
6
CONTINUOUS
10
53.6553
20
-88.2641
11
53.5951
21
-87.8841
0
LINE
8
BLACK
6
CONTINUOUS
10
53.5951
20
-87.8841
11
53.575
21
-87.5
0
LINE
8
BLACK
6
CONTINUOUS
10
53.575
20
-87.5
11
53.5951
21
-87.1159
0
LINE
8
BLACK
6
CONTINUOUS
10
53.5951
20
-87.1159
11
53.6553
21
-86.7359
0
LINE
8
BLACK
6
CONTINUOUS
10
53.7973
20
-88.2339
11
53.8929
21
-88.5908
0
LINE
8
BLACK
6
CONTINUOUS
10
53.8929
20
-88.5908
11
54.0253
21
-88.9357
0
LINE
8
BLACK
6
CONTINUOUS
10
54.0253
20
-88.9357
11
54.1931
21
-89.2649
0
LINE
8
BLACK
6
CONTINUOUS
10
54.1931
20
-89.2649
11
54.3943
21
-89.5748
0
LINE
8
BLACK
6
CONTINUOUS
10
54.3943
20
-89.5748
11
54.6268
21
-89.8619
0
LINE
8
BLACK
6
CONTINUOUS
10
54.6268
20
-89.8619
11
54.8881
21
-90.1232
0
LINE
8
BLACK
6
CONTINUOUS
10
54.8881
20
-90.1232
11
55.1752
21
-90.3557
0
LINE
8
BLACK
6
CONTINUOUS
10
55.1752
20
-90.3557
11
55.4851
21
-90.5569
0
LINE
8
BLACK
6
CONTINUOUS
10
55.4851
20
-90.5569
11
55.8143
21
-90.7247
0
LINE
8
BLACK
6
CONTINUOUS
10
55.8143
20
-90.7247
11
56.1592
21
-90.8571
0
LINE
8
BLACK
6
CONTINUOUS
10
56.1592
20
-90.8571
11
56.5161
21
-90.9527
0
LINE
8
BLACK
6
CONTINUOUS
10
56.5161
20
-90.9527
11
56.881
21
-91.0105
0
LINE
8
BLACK
6
CONTINUOUS
10
56.881
20
-91.0105
11
57.25
21
-91.0298
0
LINE
8
BLACK
6
CONTINUOUS
10
57.25
20
-91.0298
11
57.619
21
-91.0105
0
LINE
8
BLACK
6
CONTINUOUS
10
57.619
20
-91.0105
11
57.9839
21
-90.9527
0
LINE
8
BLACK
6
CONTINUOUS
10
57.9839
20
-90.9527
11
58.3408
21
-90.8571
0
LINE
8
BLACK
6
CONTINUOUS
10
58.3408
20
-90.8571
11
58.6857
21
-90.7247
0
LINE
8
BLACK
6
CONTINUOUS
10
58.6857
20
-90.7247
11
59.0149
21
-90.5569
0
LINE
8
BLACK
6
CONTINUOUS
10
59.0149
20
-90.5569
11
59.3248
21
-90.3557
0
LINE
8
BLACK
6
CONTINUOUS
10
59.3248
20
-90.3557
11
59.6119
21
-90.1232
0
LINE
8
BLACK
6
CONTINUOUS
10
59.6119
20
-90.1232
11
59.8732
21
-89.8619
0
LINE
8
BLACK
6
CONTINUOUS
10
59.8732
20
-89.8619
11
60.1057
21
-89.5748
0
LINE
8
BLACK
6
CONTINUOUS
10
60.1057
20
-89.5748
11
60.3069
21
-89.2649
0
LINE
8
BLACK
6
CONTINUOUS
10
60.3069
20
-89.2649
11
60.4747
21
-88.9357
0
LINE
8
BLACK
6
CONTINUOUS
10
60.4747
20
-88.9357
11
60.6071
21
-88.5908
0
LINE
8
BLACK
6
CONTINUOUS
10
60.6071
20
-88.5908
11
60.7027
21
-88.2339
0
LINE
8
BLACK
6
CONTINUOUS
10
60.7027
20
-88.2339
11
60.7605
21
-87.869
0
LINE
8
BLACK
6
CONTINUOUS
10
60.7605
20
-87.869
11
60.7798
21
-87.5
0
LINE
8
BLACK
6
CONTINUOUS
10
60.7798
20
-87.5
11
60.7605
21
-87.131
0
LINE
8
BLACK
6
CONTINUOUS
10
60.7605
20
-87.131
11
60.7027
21
-86.7661
0
LINE
8
BLACK
6
CONTINUOUS
10
60.7027
20
-86.7661
11
60.6071
21
-86.4092
0
LINE
8
BLACK
6
CONTINUOUS
10
60.6071
20
-86.4092
11
60.4747
21
-86.0643
0
LINE
8
BLACK
6
CONTINUOUS
10
60.4747
20
-86.0643
11
60.3069
21
-85.7351
0
LINE
8
BLACK
6
CONTINUOUS
10
60.3069
20
-85.7351
11
60.1057
21
-85.4252
0
LINE
8
BLACK
6
CONTINUOUS
10
60.1057
20
-85.4252
11
59.8732
21
-85.1381
0
LINE
8
BLACK
6
CONTINUOUS
10
59.8732
20
-85.1381
11
59.6119
21
-84.8768
0
LINE
8
BLACK
6
CONTINUOUS
10
59.6119
20
-84.8768
11
59.3248
21
-84.6443
0
LINE
8
BLACK
6
CONTINUOUS
10
59.3248
20
-84.6443
11
59.0149
21
-84.4431
0
LINE
8
BLACK
6
CONTINUOUS
10
59.0149
20
-84.4431
11
58.6857
21
-84.2753
0
LINE
8
BLACK
6
CONTINUOUS
10
58.6857
20
-84.2753
11
58.3408
21
-84.1429
0
LINE
8
BLACK
6
CONTINUOUS
10
58.3408
20
-84.1429
11
57.9839
21
-84.0473
0
LINE
8
BLACK
6
CONTINUOUS
10
57.9839
20
-84.0473
11
57.619
21
-83.9895
0
LINE
8
BLACK
6
CONTINUOUS
10
57.619
20
-83.9895
11
57.25
21
-83.9702
0
LINE
8
BLACK
6
CONTINUOUS
10
57.25
20
-83.9702
11
56.881
21
-83.9895
0
LINE
8
BLACK
6
CONTINUOUS
10
56.881
20
-83.9895
11
56.5161
21
-84.0473
0
LINE
8
BLACK
6
CONTINUOUS
10
56.5161
20
-84.0473
11
56.1592
21
-84.1429
0
LINE
8
BLACK
6
CONTINUOUS
10
56.1592
20
-84.1429
11
55.8143
21
-84.2753
0
LINE
8
BLACK
6
CONTINUOUS
10
55.8143
20
-84.2753
11
55.4851
21
-84.4431
0
LINE
8
BLACK
6
CONTINUOUS
10
55.4851
20
-84.4431
11
55.1752
21
-84.6443
0
LINE
8
BLACK
6
CONTINUOUS
10
55.1752
20
-84.6443
11
54.8881
21
-84.8768
0
LINE
8
BLACK
6
CONTINUOUS
10
54.8881
20
-84.8768
11
54.6268
21
-85.1381
0
LINE
8
BLACK
6
CONTINUOUS
10
54.6268
20
-85.1381
11
54.3943
21
-85.4252
0
LINE
8
BLACK
6
CONTINUOUS
10
54.3943
20
-85.4252
11
54.1931
21
-85.7351
0
LINE
8
BLACK
6
CONTINUOUS
10
54.1931
20
-85.7351
11
54.0253
21
-86.0643
0
LINE
8
BLACK
6
CONTINUOUS
10
54.0253
20
-86.0643
11
53.8929
21
-86.4092
0
LINE
8
BLACK
6
CONTINUOUS
10
53.8929
20
-86.4092
11
53.7973
21
-86.7661
0
LINE
8
BLACK
6
CONTINUOUS
10
53.7973
20
-86.7661
11
53.7395
21
-87.131
0
LINE
8
BLACK
6
CONTINUOUS
10
53.7395
20
-87.131
11
53.7202
21
-87.5
0
LINE
8
BLACK
6
CONTINUOUS
10
53.7202
20
-87.5
11
53.7395
21
-87.869
0
LINE
8
BLACK
6
CONTINUOUS
10
53.7395
20
-87.869
11
53.7973
21
-88.2339
0
LINE
8
BLACK
6
CONTINUOUS
10
42.1
20
-87.1021
11
42.164
21
-86.7534
0
LINE
8
BLACK
6
CONTINUOUS
10
42.164
20
-86.7534
11
42.2665
21
-86.4141
0
LINE
8
BLACK
6
CONTINUOUS
10
42.2665
20
-86.4141
11
42.4061
21
-86.0883
0
LINE
8
BLACK
6
CONTINUOUS
10
42.4061
20
-86.0883
11
42.5812
21
-85.7801
0
LINE
8
BLACK
6
CONTINUOUS
10
42.5812
20
-85.7801
11
42.7896
21
-85.4933
0
LINE
8
BLACK
6
CONTINUOUS
10
42.7896
20
-85.4933
11
43.0286
21
-85.2315
0
LINE
8
BLACK
6
CONTINUOUS
10
43.0286
20
-85.2315
11
43.2953
21
-84.9981
0
LINE
8
BLACK
6
CONTINUOUS
10
43.2953
20
-84.9981
11
43.5863
21
-84.7958
0
LINE
8
BLACK
6
CONTINUOUS
10
43.5863
20
-84.7958
11
43.8982
21
-84.6272
0
LINE
8
BLACK
6
CONTINUOUS
10
43.8982
20
-84.6272
11
44.2268
21
-84.4944
0
LINE
8
BLACK
6
CONTINUOUS
10
44.2268
20
-84.4944
11
44.5682
21
-84.3991
0
LINE
8
BLACK
6
CONTINUOUS
10
44.5682
20
-84.3991
11
44.9181
21
-84.3424
0
LINE
8
BLACK
6
CONTINUOUS
10
44.9181
20
-84.3424
11
45.2722
21
-84.3251
0
LINE
8
BLACK
6
CONTINUOUS
10
45.2722
20
-84.3251
11
45.6259
21
-84.3473
0
LINE
8
BLACK
6
CONTINUOUS
10
45.6259
20
-84.3473
11
45.975
21
-84.4089
0
LINE
8
BLACK
6
CONTINUOUS
10
45.975
20
-84.4089
11
46.3151
21
-84.509
0
LINE
8
BLACK
6
CONTINUOUS
10
46.3151
20
-84.509
11
46.6418
21
-84.6463
0
LINE
8
BLACK
6
CONTINUOUS
10
46.6418
20
-84.6463
11
46.9512
21
-84.8193
0
LINE
8
BLACK
6
CONTINUOUS
10
46.9512
20
-84.8193
11
47.2395
21
-85.0256
0
LINE
8
BLACK
6
CONTINUOUS
10
47.2395
20
-85.0256
11
47.5029
21
-85.2628
0
LINE
8
BLACK
6
CONTINUOUS
10
47.5029
20
-85.2628
11
47.7382
21
-85.5279
0
LINE
8
BLACK
6
CONTINUOUS
10
47.7382
20
-85.5279
11
47.9426
21
-85.8175
0
LINE
8
BLACK
6
CONTINUOUS
10
47.9426
20
-85.8175
11
48.1133
21
-86.1281
0
LINE
8
BLACK
6
CONTINUOUS
10
48.1133
20
-86.1281
11
48.2484
21
-86.4558
0
LINE
8
BLACK
6
CONTINUOUS
10
48.2484
20
-86.4558
11
48.3461
21
-86.7966
0
LINE
8
BLACK
6
CONTINUOUS
10
48.3461
20
-86.7966
11
48.4052
21
-87.1461
0
LINE
8
BLACK
6
CONTINUOUS
10
48.4052
20
-87.1461
11
48.425
21
-87.5
0
LINE
8
BLACK
6
CONTINUOUS
10
48.425
20
-87.5
11
48.4238
21
-87.5887
0
LINE
8
BLACK
6
CONTINUOUS
10
48.4238
20
-87.5887
11
48.3941
21
-87.9419
0
LINE
8
BLACK
6
CONTINUOUS
10
48.3941
20
-87.9419
11
48.3253
21
-88.2896
0
LINE
8
BLACK
6
CONTINUOUS
10
48.3253
20
-88.2896
11
48.2181
21
-88.6275
0
LINE
8
BLACK
6
CONTINUOUS
10
48.2181
20
-88.6275
11
48.0739
21
-88.9513
0
LINE
8
BLACK
6
CONTINUOUS
10
48.0739
20
-88.9513
11
47.8945
21
-89.257
0
LINE
8
BLACK
6
CONTINUOUS
10
47.8945
20
-89.257
11
47.6822
21
-89.5409
0
LINE
8
BLACK
6
CONTINUOUS
10
47.6822
20
-89.5409
11
47.4395
21
-89.7992
0
LINE
8
BLACK
6
CONTINUOUS
10
47.4395
20
-89.7992
11
47.1696
21
-90.029
0
LINE
8
BLACK
6
CONTINUOUS
10
47.1696
20
-90.029
11
46.8757
21
-90.2272
0
LINE
8
BLACK
6
CONTINUOUS
10
46.8757
20
-90.2272
11
46.5616
21
-90.3914
0
LINE
8
BLACK
6
CONTINUOUS
10
46.5616
20
-90.3914
11
46.2311
21
-90.5196
0
LINE
8
BLACK
6
CONTINUOUS
10
46.2311
20
-90.5196
11
45.8884
21
-90.6102
0
LINE
8
BLACK
6
CONTINUOUS
10
45.8884
20
-90.6102
11
45.5378
21
-90.6619
0
LINE
8
BLACK
6
CONTINUOUS
10
45.5378
20
-90.6619
11
45.1835
21
-90.6743
0
LINE
8
BLACK
6
CONTINUOUS
10
45.1835
20
-90.6743
11
44.8301
21
-90.6471
0
LINE
8
BLACK
6
CONTINUOUS
10
44.8301
20
-90.6471
11
44.4819
21
-90.5807
0
LINE
8
BLACK
6
CONTINUOUS
10
44.4819
20
-90.5807
11
44.1433
21
-90.4759
0
LINE
8
BLACK
6
CONTINUOUS
10
44.1433
20
-90.4759
11
43.8185
21
-90.334
0
LINE
8
BLACK
6
CONTINUOUS
10
43.8185
20
-90.334
11
43.5115
21
-90.1567
0
LINE
8
BLACK
6
CONTINUOUS
10
43.5115
20
-90.1567
11
43.2262
21
-89.9464
0
LINE
8
BLACK
6
CONTINUOUS
10
43.2262
20
-89.9464
11
42.9661
21
-89.7055
0
LINE
8
BLACK
6
CONTINUOUS
10
42.9661
20
-89.7055
11
42.7345
21
-89.4372
0
LINE
8
BLACK
6
CONTINUOUS
10
42.7345
20
-89.4372
11
42.5342
21
-89.1447
0
LINE
8
BLACK
6
CONTINUOUS
10
42.5342
20
-89.1447
11
42.3678
21
-88.8318
0
LINE
8
BLACK
6
CONTINUOUS
10
42.3678
20
-88.8318
11
42.2373
21
-88.5022
0
LINE
8
BLACK
6
CONTINUOUS
10
42.2373
20
-88.5022
11
42.1444
21
-88.1601
0
LINE
8
BLACK
6
CONTINUOUS
10
42.1444
20
-88.1601
11
42.0902
21
-87.8098
0
LINE
8
BLACK
6
CONTINUOUS
10
42.0902
20
-87.8098
11
42.0754
21
-87.4577
0
LINE
8
BLACK
6
CONTINUOUS
10
42.0754
20
-87.4577
11
42.0753
21
-87.4557
0
LINE
8
BLACK
6
CONTINUOUS
10
42.0753
20
-87.4557
11
42.1
21
-87.1021
0
LINE
8
BLACK
6
CONTINUOUS
10
42.2864
20
-88.1299
11
42.3751
21
-88.4563
0
LINE
8
BLACK
6
CONTINUOUS
10
42.3751
20
-88.4563
11
42.4996
21
-88.7708
0
LINE
8
BLACK
6
CONTINUOUS
10
42.4996
20
-88.7708
11
42.6584
21
-89.0695
0
LINE
8
BLACK
6
CONTINUOUS
10
42.6584
20
-89.0695
11
42.8495
21
-89.3486
0
LINE
8
BLACK
6
CONTINUOUS
10
42.8495
20
-89.3486
11
43.0706
21
-89.6047
0
LINE
8
BLACK
6
CONTINUOUS
10
43.0706
20
-89.6047
11
43.3188
21
-89.8345
0
LINE
8
BLACK
6
CONTINUOUS
10
43.3188
20
-89.8345
11
43.591
21
-90.0352
0
LINE
8
BLACK
6
CONTINUOUS
10
43.591
20
-90.0352
11
43.8839
21
-90.2043
0
LINE
8
BLACK
6
CONTINUOUS
10
43.8839
20
-90.2043
11
44.1939
21
-90.3397
0
LINE
8
BLACK
6
CONTINUOUS
10
44.1939
20
-90.3397
11
44.517
21
-90.4398
0
LINE
8
BLACK
6
CONTINUOUS
10
44.517
20
-90.4398
11
44.8493
21
-90.5032
0
LINE
8
BLACK
6
CONTINUOUS
10
44.8493
20
-90.5032
11
45.1865
21
-90.5291
0
LINE
8
BLACK
6
CONTINUOUS
10
45.1865
20
-90.5291
11
45.5246
21
-90.5173
0
LINE
8
BLACK
6
CONTINUOUS
10
45.5246
20
-90.5173
11
45.8592
21
-90.4679
0
LINE
8
BLACK
6
CONTINUOUS
10
45.8592
20
-90.4679
11
46.1862
21
-90.3815
0
LINE
8
BLACK
6
CONTINUOUS
10
46.1862
20
-90.3815
11
46.5016
21
-90.2592
0
LINE
8
BLACK
6
CONTINUOUS
10
46.5016
20
-90.2592
11
46.8014
21
-90.1024
0
LINE
8
BLACK
6
CONTINUOUS
10
46.8014
20
-90.1024
11
47.0818
21
-89.9133
0
LINE
8
BLACK
6
CONTINUOUS
10
47.0818
20
-89.9133
11
47.3394
21
-89.6941
0
LINE
8
BLACK
6
CONTINUOUS
10
47.3394
20
-89.6941
11
47.5709
21
-89.4475
0
LINE
8
BLACK
6
CONTINUOUS
10
47.5709
20
-89.4475
11
47.7736
21
-89.1766
0
LINE
8
BLACK
6
CONTINUOUS
10
47.7736
20
-89.1766
11
47.9447
21
-88.8849
0
LINE
8
BLACK
6
CONTINUOUS
10
47.9447
20
-88.8849
11
48.0823
21
-88.5759
0
LINE
8
BLACK
6
CONTINUOUS
10
48.0823
20
-88.5759
11
48.1846
21
-88.2535
0
LINE
8
BLACK
6
CONTINUOUS
10
48.1846
20
-88.2535
11
48.2503
21
-87.9217
0
LINE
8
BLACK
6
CONTINUOUS
10
48.2503
20
-87.9217
11
48.2786
21
-87.5846
0
LINE
8
BLACK
6
CONTINUOUS
10
48.2786
20
-87.5846
11
48.2798
21
-87.5
0
LINE
8
BLACK
6
CONTINUOUS
10
48.2798
20
-87.5
11
48.2609
21
-87.1623
0
LINE
8
BLACK
6
CONTINUOUS
10
48.2609
20
-87.1623
11
48.2045
21
-86.8288
0
LINE
8
BLACK
6
CONTINUOUS
10
48.2045
20
-86.8288
11
48.1112
21
-86.5036
0
LINE
8
BLACK
6
CONTINUOUS
10
48.1112
20
-86.5036
11
47.9823
21
-86.1909
0
LINE
8
BLACK
6
CONTINUOUS
10
47.9823
20
-86.1909
11
47.8194
21
-85.8945
0
LINE
8
BLACK
6
CONTINUOUS
10
47.8194
20
-85.8945
11
47.6244
21
-85.6181
0
LINE
8
BLACK
6
CONTINUOUS
10
47.6244
20
-85.6181
11
47.3998
21
-85.3651
0
LINE
8
BLACK
6
CONTINUOUS
10
47.3998
20
-85.3651
11
47.1485
21
-85.1388
0
LINE
8
BLACK
6
CONTINUOUS
10
47.1485
20
-85.1388
11
46.8734
21
-84.9419
0
LINE
8
BLACK
6
CONTINUOUS
10
46.8734
20
-84.9419
11
46.5782
21
-84.7769
0
LINE
8
BLACK
6
CONTINUOUS
10
46.5782
20
-84.7769
11
46.2663
21
-84.6458
0
LINE
8
BLACK
6
CONTINUOUS
10
46.2663
20
-84.6458
11
45.9418
21
-84.5503
0
LINE
8
BLACK
6
CONTINUOUS
10
45.9418
20
-84.5503
11
45.6087
21
-84.4915
0
LINE
8
BLACK
6
CONTINUOUS
10
45.6087
20
-84.4915
11
45.2712
21
-84.4703
0
LINE
8
BLACK
6
CONTINUOUS
10
45.2712
20
-84.4703
11
44.9333
21
-84.4868
0
LINE
8
BLACK
6
CONTINUOUS
10
44.9333
20
-84.4868
11
44.5994
21
-84.5409
0
LINE
8
BLACK
6
CONTINUOUS
10
44.5994
20
-84.5409
11
44.2736
21
-84.6319
0
LINE
8
BLACK
6
CONTINUOUS
10
44.2736
20
-84.6319
11
43.96
21
-84.7586
0
LINE
8
BLACK
6
CONTINUOUS
10
43.96
20
-84.7586
11
43.6624
21
-84.9195
0
LINE
8
BLACK
6
CONTINUOUS
10
43.6624
20
-84.9195
11
43.3847
21
-85.1125
0
LINE
8
BLACK
6
CONTINUOUS
10
43.3847
20
-85.1125
11
43.1302
21
-85.3353
0
LINE
8
BLACK
6
CONTINUOUS
10
43.1302
20
-85.3353
11
42.9021
21
-85.5851
0
LINE
8
BLACK
6
CONTINUOUS
10
42.9021
20
-85.5851
11
42.7033
21
-85.8588
0
LINE
8
BLACK
6
CONTINUOUS
10
42.7033
20
-85.8588
11
42.5362
21
-86.1529
0
LINE
8
BLACK
6
CONTINUOUS
10
42.5362
20
-86.1529
11
42.403
21
-86.4638
0
LINE
8
BLACK
6
CONTINUOUS
10
42.403
20
-86.4638
11
42.3052
21
-86.7876
0
LINE
8
BLACK
6
CONTINUOUS
10
42.3052
20
-86.7876
11
42.2441
21
-87.1203
0
LINE
8
BLACK
6
CONTINUOUS
10
42.2441
20
-87.1203
11
42.2205
21
-87.4577
0
LINE
8
BLACK
6
CONTINUOUS
10
42.2205
20
-87.4577
11
42.2347
21
-87.7957
0
LINE
8
BLACK
6
CONTINUOUS
10
42.2347
20
-87.7957
11
42.2864
21
-88.1299
0
LINE
8
BLACK
6
CONTINUOUS
10
41.6553
20
-69.2359
11
41.7549
21
-68.8644
0
LINE
8
BLACK
6
CONTINUOUS
10
41.7549
20
-68.8644
11
41.8927
21
-68.5052
0
LINE
8
BLACK
6
CONTINUOUS
10
41.8927
20
-68.5052
11
42.0674
21
-68.1625
0
LINE
8
BLACK
6
CONTINUOUS
10
42.0674
20
-68.1625
11
42.2769
21
-67.8399
0
LINE
8
BLACK
6
CONTINUOUS
10
42.2769
20
-67.8399
11
42.5189
21
-67.5409
0
LINE
8
BLACK
6
CONTINUOUS
10
42.5189
20
-67.5409
11
42.7909
21
-67.2689
0
LINE
8
BLACK
6
CONTINUOUS
10
42.7909
20
-67.2689
11
43.0899
21
-67.0269
0
LINE
8
BLACK
6
CONTINUOUS
10
43.0899
20
-67.0269
11
43.4125
21
-66.8174
0
LINE
8
BLACK
6
CONTINUOUS
10
43.4125
20
-66.8174
11
43.7552
21
-66.6427
0
LINE
8
BLACK
6
CONTINUOUS
10
43.7552
20
-66.6427
11
44.1144
21
-66.5049
0
LINE
8
BLACK
6
CONTINUOUS
10
44.1144
20
-66.5049
11
44.4859
21
-66.4053
0
LINE
8
BLACK
6
CONTINUOUS
10
44.4859
20
-66.4053
11
44.8659
21
-66.3451
0
LINE
8
BLACK
6
CONTINUOUS
10
44.8659
20
-66.3451
11
45.25
21
-66.325
0
LINE
8
BLACK
6
CONTINUOUS
10
45.25
20
-66.325
11
45.6341
21
-66.3451
0
LINE
8
BLACK
6
CONTINUOUS
10
45.6341
20
-66.3451
11
46.0141
21
-66.4053
0
LINE
8
BLACK
6
CONTINUOUS
10
46.0141
20
-66.4053
11
46.3856
21
-66.5049
0
LINE
8
BLACK
6
CONTINUOUS
10
46.3856
20
-66.5049
11
46.7448
21
-66.6427
0
LINE
8
BLACK
6
CONTINUOUS
10
46.7448
20
-66.6427
11
47.0875
21
-66.8174
0
LINE
8
BLACK
6
CONTINUOUS
10
47.0875
20
-66.8174
11
47.4101
21
-67.0269
0
LINE
8
BLACK
6
CONTINUOUS
10
47.4101
20
-67.0269
11
47.7091
21
-67.2689
0
LINE
8
BLACK
6
CONTINUOUS
10
47.7091
20
-67.2689
11
47.9811
21
-67.5409
0
LINE
8
BLACK
6
CONTINUOUS
10
47.9811
20
-67.5409
11
48.2231
21
-67.8399
0
LINE
8
BLACK
6
CONTINUOUS
10
48.2231
20
-67.8399
11
48.4326
21
-68.1625
0
LINE
8
BLACK
6
CONTINUOUS
10
48.4326
20
-68.1625
11
48.6073
21
-68.5052
0
LINE
8
BLACK
6
CONTINUOUS
10
48.6073
20
-68.5052
11
48.7451
21
-68.8644
0
LINE
8
BLACK
6
CONTINUOUS
10
48.7451
20
-68.8644
11
48.8447
21
-69.2359
0
LINE
8
BLACK
6
CONTINUOUS
10
48.8447
20
-69.2359
11
48.9049
21
-69.6159
0
LINE
8
BLACK
6
CONTINUOUS
10
48.9049
20
-69.6159
11
48.925
21
-70
0
LINE
8
BLACK
6
CONTINUOUS
10
48.925
20
-70
11
48.9049
21
-70.3841
0
LINE
8
BLACK
6
CONTINUOUS
10
48.9049
20
-70.3841
11
48.8447
21
-70.7641
0
LINE
8
BLACK
6
CONTINUOUS
10
48.8447
20
-70.7641
11
48.7451
21
-71.1356
0
LINE
8
BLACK
6
CONTINUOUS
10
48.7451
20
-71.1356
11
48.6073
21
-71.4948
0
LINE
8
BLACK
6
CONTINUOUS
10
48.6073
20
-71.4948
11
48.4326
21
-71.8375
0
LINE
8
BLACK
6
CONTINUOUS
10
48.4326
20
-71.8375
11
48.2231
21
-72.1601
0
LINE
8
BLACK
6
CONTINUOUS
10
48.2231
20
-72.1601
11
47.9811
21
-72.4591
0
LINE
8
BLACK
6
CONTINUOUS
10
47.9811
20
-72.4591
11
47.7091
21
-72.7311
0
LINE
8
BLACK
6
CONTINUOUS
10
47.7091
20
-72.7311
11
47.4101
21
-72.9731
0
LINE
8
BLACK
6
CONTINUOUS
10
47.4101
20
-72.9731
11
47.0875
21
-73.1826
0
LINE
8
BLACK
6
CONTINUOUS
10
47.0875
20
-73.1826
11
46.7448
21
-73.3573
0
LINE
8
BLACK
6
CONTINUOUS
10
46.7448
20
-73.3573
11
46.3856
21
-73.4951
0
LINE
8
BLACK
6
CONTINUOUS
10
46.3856
20
-73.4951
11
46.0141
21
-73.5947
0
LINE
8
BLACK
6
CONTINUOUS
10
46.0141
20
-73.5947
11
45.6341
21
-73.6549
0
LINE
8
BLACK
6
CONTINUOUS
10
45.6341
20
-73.6549
11
45.25
21
-73.675
0
LINE
8
BLACK
6
CONTINUOUS
10
45.25
20
-73.675
11
44.8659
21
-73.6549
0
LINE
8
BLACK
6
CONTINUOUS
10
44.8659
20
-73.6549
11
44.4859
21
-73.5947
0
LINE
8
BLACK
6
CONTINUOUS
10
44.4859
20
-73.5947
11
44.1144
21
-73.4951
0
LINE
8
BLACK
6
CONTINUOUS
10
44.1144
20
-73.4951
11
43.7552
21
-73.3573
0
LINE
8
BLACK
6
CONTINUOUS
10
43.7552
20
-73.3573
11
43.4125
21
-73.1826
0
LINE
8
BLACK
6
CONTINUOUS
10
43.4125
20
-73.1826
11
43.0899
21
-72.9731
0
LINE
8
BLACK
6
CONTINUOUS
10
43.0899
20
-72.9731
11
42.7909
21
-72.7311
0
LINE
8
BLACK
6
CONTINUOUS
10
42.7909
20
-72.7311
11
42.5189
21
-72.4591
0
LINE
8
BLACK
6
CONTINUOUS
10
42.5189
20
-72.4591
11
42.2769
21
-72.1601
0
LINE
8
BLACK
6
CONTINUOUS
10
42.2769
20
-72.1601
11
42.0674
21
-71.8375
0
LINE
8
BLACK
6
CONTINUOUS
10
42.0674
20
-71.8375
11
41.8927
21
-71.4948
0
LINE
8
BLACK
6
CONTINUOUS
10
41.8927
20
-71.4948
11
41.7549
21
-71.1356
0
LINE
8
BLACK
6
CONTINUOUS
10
41.7549
20
-71.1356
11
41.6553
21
-70.7641
0
LINE
8
BLACK
6
CONTINUOUS
10
41.6553
20
-70.7641
11
41.5951
21
-70.3841
0
LINE
8
BLACK
6
CONTINUOUS
10
41.5951
20
-70.3841
11
41.575
21
-70
0
LINE
8
BLACK
6
CONTINUOUS
10
41.575
20
-70
11
41.5951
21
-69.6159
0
LINE
8
BLACK
6
CONTINUOUS
10
41.5951
20
-69.6159
11
41.6553
21
-69.2359
0
LINE
8
BLACK
6
CONTINUOUS
10
41.7973
20
-70.7339
11
41.8929
21
-71.0908
0
LINE
8
BLACK
6
CONTINUOUS
10
41.8929
20
-71.0908
11
42.0253
21
-71.4357
0
LINE
8
BLACK
6
CONTINUOUS
10
42.0253
20
-71.4357
11
42.1931
21
-71.7649
0
LINE
8
BLACK
6
CONTINUOUS
10
42.1931
20
-71.7649
11
42.3943
21
-72.0748
0
LINE
8
BLACK
6
CONTINUOUS
10
42.3943
20
-72.0748
11
42.6268
21
-72.3619
0
LINE
8
BLACK
6
CONTINUOUS
10
42.6268
20
-72.3619
11
42.8881
21
-72.6232
0
LINE
8
BLACK
6
CONTINUOUS
10
42.8881
20
-72.6232
11
43.1752
21
-72.8557
0
LINE
8
BLACK
6
CONTINUOUS
10
43.1752
20
-72.8557
11
43.4851
21
-73.0569
0
LINE
8
BLACK
6
CONTINUOUS
10
43.4851
20
-73.0569
11
43.8143
21
-73.2247
0
LINE
8
BLACK
6
CONTINUOUS
10
43.8143
20
-73.2247
11
44.1592
21
-73.3571
0
LINE
8
BLACK
6
CONTINUOUS
10
44.1592
20
-73.3571
11
44.5161
21
-73.4527
0
LINE
8
BLACK
6
CONTINUOUS
10
44.5161
20
-73.4527
11
44.881
21
-73.5105
0
LINE
8
BLACK
6
CONTINUOUS
10
44.881
20
-73.5105
11
45.25
21
-73.5298
0
LINE
8
BLACK
6
CONTINUOUS
10
45.25
20
-73.5298
11
45.619
21
-73.5105
0
LINE
8
BLACK
6
CONTINUOUS
10
45.619
20
-73.5105
11
45.9839
21
-73.4527
0
LINE
8
BLACK
6
CONTINUOUS
10
45.9839
20
-73.4527
11
46.3408
21
-73.3571
0
LINE
8
BLACK
6
CONTINUOUS
10
46.3408
20
-73.3571
11
46.6857
21
-73.2247
0
LINE
8
BLACK
6
CONTINUOUS
10
46.6857
20
-73.2247
11
47.0149
21
-73.0569
0
LINE
8
BLACK
6
CONTINUOUS
10
47.0149
20
-73.0569
11
47.3248
21
-72.8557
0
LINE
8
BLACK
6
CONTINUOUS
10
47.3248
20
-72.8557
11
47.6119
21
-72.6232
0
LINE
8
BLACK
6
CONTINUOUS
10
47.6119
20
-72.6232
11
47.8732
21
-72.3619
0
LINE
8
BLACK
6
CONTINUOUS
10
47.8732
20
-72.3619
11
48.1057
21
-72.0748
0
LINE
8
BLACK
6
CONTINUOUS
10
48.1057
20
-72.0748
11
48.3069
21
-71.7649
0
LINE
8
BLACK
6
CONTINUOUS
10
48.3069
20
-71.7649
11
48.4747
21
-71.4357
0
LINE
8
BLACK
6
CONTINUOUS
10
48.4747
20
-71.4357
11
48.6071
21
-71.0908
0
LINE
8
BLACK
6
CONTINUOUS
10
48.6071
20
-71.0908
11
48.7027
21
-70.7339
0
LINE
8
BLACK
6
CONTINUOUS
10
48.7027
20
-70.7339
11
48.7605
21
-70.369
0
LINE
8
BLACK
6
CONTINUOUS
10
48.7605
20
-70.369
11
48.7798
21
-70
0
LINE
8
BLACK
6
CONTINUOUS
10
48.7798
20
-70
11
48.7605
21
-69.631
0
LINE
8
BLACK
6
CONTINUOUS
10
48.7605
20
-69.631
11
48.7027
21
-69.2661
0
LINE
8
BLACK
6
CONTINUOUS
10
48.7027
20
-69.2661
11
48.6071
21
-68.9092
0
LINE
8
BLACK
6
CONTINUOUS
10
48.6071
20
-68.9092
11
48.4747
21
-68.5643
0
LINE
8
BLACK
6
CONTINUOUS
10
48.4747
20
-68.5643
11
48.3069
21
-68.2351
0
LINE
8
BLACK
6
CONTINUOUS
10
48.3069
20
-68.2351
11
48.1057
21
-67.9252
0
LINE
8
BLACK
6
CONTINUOUS
10
48.1057
20
-67.9252
11
47.8732
21
-67.6381
0
LINE
8
BLACK
6
CONTINUOUS
10
47.8732
20
-67.6381
11
47.6119
21
-67.3768
0
LINE
8
BLACK
6
CONTINUOUS
10
47.6119
20
-67.3768
11
47.3248
21
-67.1443
0
LINE
8
BLACK
6
CONTINUOUS
10
47.3248
20
-67.1443
11
47.0149
21
-66.9431
0
LINE
8
BLACK
6
CONTINUOUS
10
47.0149
20
-66.9431
11
46.6857
21
-66.7753
0
LINE
8
BLACK
6
CONTINUOUS
10
46.6857
20
-66.7753
11
46.3408
21
-66.6429
0
LINE
8
BLACK
6
CONTINUOUS
10
46.3408
20
-66.6429
11
45.9839
21
-66.5473
0
LINE
8
BLACK
6
CONTINUOUS
10
45.9839
20
-66.5473
11
45.619
21
-66.4895
0
LINE
8
BLACK
6
CONTINUOUS
10
45.619
20
-66.4895
11
45.25
21
-66.4702
0
LINE
8
BLACK
6
CONTINUOUS
10
45.25
20
-66.4702
11
44.881
21
-66.4895
0
LINE
8
BLACK
6
CONTINUOUS
10
44.881
20
-66.4895
11
44.5161
21
-66.5473
0
LINE
8
BLACK
6
CONTINUOUS
10
44.5161
20
-66.5473
11
44.1592
21
-66.6429
0
LINE
8
BLACK
6
CONTINUOUS
10
44.1592
20
-66.6429
11
43.8143
21
-66.7753
0
LINE
8
BLACK
6
CONTINUOUS
10
43.8143
20
-66.7753
11
43.4851
21
-66.9431
0
LINE
8
BLACK
6
CONTINUOUS
10
43.4851
20
-66.9431
11
43.1752
21
-67.1443
0
LINE
8
BLACK
6
CONTINUOUS
10
43.1752
20
-67.1443
11
42.8881
21
-67.3768
0
LINE
8
BLACK
6
CONTINUOUS
10
42.8881
20
-67.3768
11
42.6268
21
-67.6381
0
LINE
8
BLACK
6
CONTINUOUS
10
42.6268
20
-67.6381
11
42.3943
21
-67.9252
0
LINE
8
BLACK
6
CONTINUOUS
10
42.3943
20
-67.9252
11
42.1931
21
-68.2351
0
LINE
8
BLACK
6
CONTINUOUS
10
42.1931
20
-68.2351
11
42.0253
21
-68.5643
0
LINE
8
BLACK
6
CONTINUOUS
10
42.0253
20
-68.5643
11
41.8929
21
-68.9092
0
LINE
8
BLACK
6
CONTINUOUS
10
41.8929
20
-68.9092
11
41.7973
21
-69.2661
0
LINE
8
BLACK
6
CONTINUOUS
10
41.7973
20
-69.2661
11
41.7395
21
-69.631
0
LINE
8
BLACK
6
CONTINUOUS
10
41.7395
20
-69.631
11
41.7202
21
-70
0
LINE
8
BLACK
6
CONTINUOUS
10
41.7202
20
-70
11
41.7395
21
-70.369
0
LINE
8
BLACK
6
CONTINUOUS
10
41.7395
20
-70.369
11
41.7973
21
-70.7339
0
LINE
8
BLACK
6
CONTINUOUS
10
54.1
20
-69.6021
11
54.164
21
-69.2534
0
LINE
8
BLACK
6
CONTINUOUS
10
54.164
20
-69.2534
11
54.2665
21
-68.9141
0
LINE
8
BLACK
6
CONTINUOUS
10
54.2665
20
-68.9141
11
54.4061
21
-68.5883
0
LINE
8
BLACK
6
CONTINUOUS
10
54.4061
20
-68.5883
11
54.5812
21
-68.2801
0
LINE
8
BLACK
6
CONTINUOUS
10
54.5812
20
-68.2801
11
54.7896
21
-67.9933
0
LINE
8
BLACK
6
CONTINUOUS
10
54.7896
20
-67.9933
11
55.0286
21
-67.7315
0
LINE
8
BLACK
6
CONTINUOUS
10
55.0286
20
-67.7315
11
55.2953
21
-67.4981
0
LINE
8
BLACK
6
CONTINUOUS
10
55.2953
20
-67.4981
11
55.5863
21
-67.2958
0
LINE
8
BLACK
6
CONTINUOUS
10
55.5863
20
-67.2958
11
55.8982
21
-67.1272
0
LINE
8
BLACK
6
CONTINUOUS
10
55.8982
20
-67.1272
11
56.2268
21
-66.9944
0
LINE
8
BLACK
6
CONTINUOUS
10
56.2268
20
-66.9944
11
56.5682
21
-66.8991
0
LINE
8
BLACK
6
CONTINUOUS
10
56.5682
20
-66.8991
11
56.9181
21
-66.8424
0
LINE
8
BLACK
6
CONTINUOUS
10
56.9181
20
-66.8424
11
57.2722
21
-66.8251
0
LINE
8
BLACK
6
CONTINUOUS
10
57.2722
20
-66.8251
11
57.6259
21
-66.8473
0
LINE
8
BLACK
6
CONTINUOUS
10
57.6259
20
-66.8473
11
57.975
21
-66.9089
0
LINE
8
BLACK
6
CONTINUOUS
10
57.975
20
-66.9089
11
58.3151
21
-67.009
0
LINE
8
BLACK
6
CONTINUOUS
10
58.3151
20
-67.009
11
58.6418
21
-67.1463
0
LINE
8
BLACK
6
CONTINUOUS
10
58.6418
20
-67.1463
11
58.9512
21
-67.3193
0
LINE
8
BLACK
6
CONTINUOUS
10
58.9512
20
-67.3193
11
59.2395
21
-67.5256
0
LINE
8
BLACK
6
CONTINUOUS
10
59.2395
20
-67.5256
11
59.5029
21
-67.7628
0
LINE
8
BLACK
6
CONTINUOUS
10
59.5029
20
-67.7628
11
59.7382
21
-68.0279
0
LINE
8
BLACK
6
CONTINUOUS
10
59.7382
20
-68.0279
11
59.9426
21
-68.3175
0
LINE
8
BLACK
6
CONTINUOUS
10
59.9426
20
-68.3175
11
60.1133
21
-68.6281
0
LINE
8
BLACK
6
CONTINUOUS
10
60.1133
20
-68.6281
11
60.2484
21
-68.9558
0
LINE
8
BLACK
6
CONTINUOUS
10
60.2484
20
-68.9558
11
60.3461
21
-69.2966
0
LINE
8
BLACK
6
CONTINUOUS
10
60.3461
20
-69.2966
11
60.4052
21
-69.6461
0
LINE
8
BLACK
6
CONTINUOUS
10
60.4052
20
-69.6461
11
60.425
21
-70
0
LINE
8
BLACK
6
CONTINUOUS
10
60.425
20
-70
11
60.4238
21
-70.0887
0
LINE
8
BLACK
6
CONTINUOUS
10
60.4238
20
-70.0887
11
60.3941
21
-70.4419
0
LINE
8
BLACK
6
CONTINUOUS
10
60.3941
20
-70.4419
11
60.3253
21
-70.7896
0
LINE
8
BLACK
6
CONTINUOUS
10
60.3253
20
-70.7896
11
60.2181
21
-71.1275
0
LINE
8
BLACK
6
CONTINUOUS
10
60.2181
20
-71.1275
11
60.0739
21
-71.4513
0
LINE
8
BLACK
6
CONTINUOUS
10
60.0739
20
-71.4513
11
59.8945
21
-71.757
0
LINE
8
BLACK
6
CONTINUOUS
10
59.8945
20
-71.757
11
59.6822
21
-72.0409
0
LINE
8
BLACK
6
CONTINUOUS
10
59.6822
20
-72.0409
11
59.4395
21
-72.2992
0
LINE
8
BLACK
6
CONTINUOUS
10
59.4395
20
-72.2992
11
59.1696
21
-72.529
0
LINE
8
BLACK
6
CONTINUOUS
10
59.1696
20
-72.529
11
58.8757
21
-72.7272
0
LINE
8
BLACK
6
CONTINUOUS
10
58.8757
20
-72.7272
11
58.5616
21
-72.8914
0
LINE
8
BLACK
6
CONTINUOUS
10
58.5616
20
-72.8914
11
58.2311
21
-73.0196
0
LINE
8
BLACK
6
CONTINUOUS
10
58.2311
20
-73.0196
11
57.8884
21
-73.1102
0
LINE
8
BLACK
6
CONTINUOUS
10
57.8884
20
-73.1102
11
57.5378
21
-73.1619
0
LINE
8
BLACK
6
CONTINUOUS
10
57.5378
20
-73.1619
11
57.1835
21
-73.1743
0
LINE
8
BLACK
6
CONTINUOUS
10
57.1835
20
-73.1743
11
56.8301
21
-73.1471
0
LINE
8
BLACK
6
CONTINUOUS
10
56.8301
20
-73.1471
11
56.4819
21
-73.0807
0
LINE
8
BLACK
6
CONTINUOUS
10
56.4819
20
-73.0807
11
56.1433
21
-72.9759
0
LINE
8
BLACK
6
CONTINUOUS
10
56.1433
20
-72.9759
11
55.8185
21
-72.834
0
LINE
8
BLACK
6
CONTINUOUS
10
55.8185
20
-72.834
11
55.5115
21
-72.6567
0
LINE
8
BLACK
6
CONTINUOUS
10
55.5115
20
-72.6567
11
55.2262
21
-72.4464
0
LINE
8
BLACK
6
CONTINUOUS
10
55.2262
20
-72.4464
11
54.9661
21
-72.2055
0
LINE
8
BLACK
6
CONTINUOUS
10
54.9661
20
-72.2055
11
54.7345
21
-71.9372
0
LINE
8
BLACK
6
CONTINUOUS
10
54.7345
20
-71.9372
11
54.5342
21
-71.6447
0
LINE
8
BLACK
6
CONTINUOUS
10
54.5342
20
-71.6447
11
54.3678
21
-71.3318
0
LINE
8
BLACK
6
CONTINUOUS
10
54.3678
20
-71.3318
11
54.2373
21
-71.0022
0
LINE
8
BLACK
6
CONTINUOUS
10
54.2373
20
-71.0022
11
54.1444
21
-70.6601
0
LINE
8
BLACK
6
CONTINUOUS
10
54.1444
20
-70.6601
11
54.0902
21
-70.3098
0
LINE
8
BLACK
6
CONTINUOUS
10
54.0902
20
-70.3098
11
54.0754
21
-69.9577
0
LINE
8
BLACK
6
CONTINUOUS
10
54.0754
20
-69.9577
11
54.0753
21
-69.9557
0
LINE
8
BLACK
6
CONTINUOUS
10
54.0753
20
-69.9557
11
54.1
21
-69.6021
0
LINE
8
BLACK
6
CONTINUOUS
10
54.2864
20
-70.6299
11
54.3751
21
-70.9563
0
LINE
8
BLACK
6
CONTINUOUS
10
54.3751
20
-70.9563
11
54.4996
21
-71.2708
0
LINE
8
BLACK
6
CONTINUOUS
10
54.4996
20
-71.2708
11
54.6584
21
-71.5695
0
LINE
8
BLACK
6
CONTINUOUS
10
54.6584
20
-71.5695
11
54.8495
21
-71.8486
0
LINE
8
BLACK
6
CONTINUOUS
10
54.8495
20
-71.8486
11
55.0706
21
-72.1047
0
LINE
8
BLACK
6
CONTINUOUS
10
55.0706
20
-72.1047
11
55.3188
21
-72.3345
0
LINE
8
BLACK
6
CONTINUOUS
10
55.3188
20
-72.3345
11
55.591
21
-72.5352
0
LINE
8
BLACK
6
CONTINUOUS
10
55.591
20
-72.5352
11
55.8839
21
-72.7043
0
LINE
8
BLACK
6
CONTINUOUS
10
55.8839
20
-72.7043
11
56.1939
21
-72.8397
0
LINE
8
BLACK
6
CONTINUOUS
10
56.1939
20
-72.8397
11
56.517
21
-72.9398
0
LINE
8
BLACK
6
CONTINUOUS
10
56.517
20
-72.9398
11
56.8493
21
-73.0032
0
LINE
8
BLACK
6
CONTINUOUS
10
56.8493
20
-73.0032
11
57.1865
21
-73.0291
0
LINE
8
BLACK
6
CONTINUOUS
10
57.1865
20
-73.0291
11
57.5246
21
-73.0173
0
LINE
8
BLACK
6
CONTINUOUS
10
57.5246
20
-73.0173
11
57.8592
21
-72.9679
0
LINE
8
BLACK
6
CONTINUOUS
10
57.8592
20
-72.9679
11
58.1862
21
-72.8815
0
LINE
8
BLACK
6
CONTINUOUS
10
58.1862
20
-72.8815
11
58.5016
21
-72.7592
0
LINE
8
BLACK
6
CONTINUOUS
10
58.5016
20
-72.7592
11
58.8014
21
-72.6024
0
LINE
8
BLACK
6
CONTINUOUS
10
58.8014
20
-72.6024
11
59.0818
21
-72.4133
0
LINE
8
BLACK
6
CONTINUOUS
10
59.0818
20
-72.4133
11
59.3394
21
-72.1941
0
LINE
8
BLACK
6
CONTINUOUS
10
59.3394
20
-72.1941
11
59.5709
21
-71.9475
0
LINE
8
BLACK
6
CONTINUOUS
10
59.5709
20
-71.9475
11
59.7736
21
-71.6766
0
LINE
8
BLACK
6
CONTINUOUS
10
59.7736
20
-71.6766
11
59.9447
21
-71.3849
0
LINE
8
BLACK
6
CONTINUOUS
10
59.9447
20
-71.3849
11
60.0823
21
-71.0759
0
LINE
8
BLACK
6
CONTINUOUS
10
60.0823
20
-71.0759
11
60.1846
21
-70.7535
0
LINE
8
BLACK
6
CONTINUOUS
10
60.1846
20
-70.7535
11
60.2503
21
-70.4217
0
LINE
8
BLACK
6
CONTINUOUS
10
60.2503
20
-70.4217
11
60.2786
21
-70.0846
0
LINE
8
BLACK
6
CONTINUOUS
10
60.2786
20
-70.0846
11
60.2798
21
-70
0
LINE
8
BLACK
6
CONTINUOUS
10
60.2798
20
-70
11
60.2609
21
-69.6623
0
LINE
8
BLACK
6
CONTINUOUS
10
60.2609
20
-69.6623
11
60.2045
21
-69.3288
0
LINE
8
BLACK
6
CONTINUOUS
10
60.2045
20
-69.3288
11
60.1112
21
-69.0036
0
LINE
8
BLACK
6
CONTINUOUS
10
60.1112
20
-69.0036
11
59.9823
21
-68.6909
0
LINE
8
BLACK
6
CONTINUOUS
10
59.9823
20
-68.6909
11
59.8194
21
-68.3945
0
LINE
8
BLACK
6
CONTINUOUS
10
59.8194
20
-68.3945
11
59.6244
21
-68.1181
0
LINE
8
BLACK
6
CONTINUOUS
10
59.6244
20
-68.1181
11
59.3998
21
-67.8651
0
LINE
8
BLACK
6
CONTINUOUS
10
59.3998
20
-67.8651
11
59.1485
21
-67.6388
0
LINE
8
BLACK
6
CONTINUOUS
10
59.1485
20
-67.6388
11
58.8734
21
-67.4419
0
LINE
8
BLACK
6
CONTINUOUS
10
58.8734
20
-67.4419
11
58.5782
21
-67.2769
0
LINE
8
BLACK
6
CONTINUOUS
10
58.5782
20
-67.2769
11
58.2663
21
-67.1458
0
LINE
8
BLACK
6
CONTINUOUS
10
58.2663
20
-67.1458
11
57.9418
21
-67.0503
0
LINE
8
BLACK
6
CONTINUOUS
10
57.9418
20
-67.0503
11
57.6087
21
-66.9915
0
LINE
8
BLACK
6
CONTINUOUS
10
57.6087
20
-66.9915
11
57.2712
21
-66.9703
0
LINE
8
BLACK
6
CONTINUOUS
10
57.2712
20
-66.9703
11
56.9333
21
-66.9868
0
LINE
8
BLACK
6
CONTINUOUS
10
56.9333
20
-66.9868
11
56.5994
21
-67.0409
0
LINE
8
BLACK
6
CONTINUOUS
10
56.5994
20
-67.0409
11
56.2736
21
-67.1319
0
LINE
8
BLACK
6
CONTINUOUS
10
56.2736
20
-67.1319
11
55.96
21
-67.2586
0
LINE
8
BLACK
6
CONTINUOUS
10
55.96
20
-67.2586
11
55.6624
21
-67.4195
0
LINE
8
BLACK
6
CONTINUOUS
10
55.6624
20
-67.4195
11
55.3847
21
-67.6125
0
LINE
8
BLACK
6
CONTINUOUS
10
55.3847
20
-67.6125
11
55.1302
21
-67.8353
0
LINE
8
BLACK
6
CONTINUOUS
10
55.1302
20
-67.8353
11
54.9021
21
-68.0851
0
LINE
8
BLACK
6
CONTINUOUS
10
54.9021
20
-68.0851
11
54.7033
21
-68.3588
0
LINE
8
BLACK
6
CONTINUOUS
10
54.7033
20
-68.3588
11
54.5362
21
-68.6529
0
LINE
8
BLACK
6
CONTINUOUS
10
54.5362
20
-68.6529
11
54.403
21
-68.9638
0
LINE
8
BLACK
6
CONTINUOUS
10
54.403
20
-68.9638
11
54.3052
21
-69.2876
0
LINE
8
BLACK
6
CONTINUOUS
10
54.3052
20
-69.2876
11
54.2441
21
-69.6203
0
LINE
8
BLACK
6
CONTINUOUS
10
54.2441
20
-69.6203
11
54.2205
21
-69.9577
0
LINE
8
BLACK
6
CONTINUOUS
10
54.2205
20
-69.9577
11
54.2347
21
-70.2957
0
LINE
8
BLACK
6
CONTINUOUS
10
54.2347
20
-70.2957
11
54.2864
21
-70.6299
0
LINE
8
BLACK
6
CONTINUOUS
10
26.0021
20
-54.7633
11
26.0967
21
-54.535
0
LINE
8
BLACK
6
CONTINUOUS
10
26.0967
20
-54.535
11
26.2258
21
-54.3242
0
LINE
8
BLACK
6
CONTINUOUS
10
26.2258
20
-54.3242
11
26.3863
21
-54.1363
0
LINE
8
BLACK
6
CONTINUOUS
10
26.3863
20
-54.1363
11
26.5742
21
-53.9758
0
LINE
8
BLACK
6
CONTINUOUS
10
26.5742
20
-53.9758
11
26.785
21
-53.8467
0
LINE
8
BLACK
6
CONTINUOUS
10
26.785
20
-53.8467
11
27.0133
21
-53.7521
0
LINE
8
BLACK
6
CONTINUOUS
10
27.0133
20
-53.7521
11
27.2536
21
-53.6944
0
LINE
8
BLACK
6
CONTINUOUS
10
27.2536
20
-53.6944
11
27.5
21
-53.675
0
LINE
8
BLACK
6
CONTINUOUS
10
27.5
20
-53.675
11
27.7464
21
-53.6944
0
LINE
8
BLACK
6
CONTINUOUS
10
27.7464
20
-53.6944
11
27.9867
21
-53.7521
0
LINE
8
BLACK
6
CONTINUOUS
10
27.9867
20
-53.7521
11
28.215
21
-53.8467
0
LINE
8
BLACK
6
CONTINUOUS
10
28.215
20
-53.8467
11
28.4258
21
-53.9758
0
LINE
8
BLACK
6
CONTINUOUS
10
28.4258
20
-53.9758
11
28.6137
21
-54.1363
0
LINE
8
BLACK
6
CONTINUOUS
10
28.6137
20
-54.1363
11
28.7742
21
-54.3242
0
LINE
8
BLACK
6
CONTINUOUS
10
28.7742
20
-54.3242
11
28.9033
21
-54.535
0
LINE
8
BLACK
6
CONTINUOUS
10
28.9033
20
-54.535
11
28.9979
21
-54.7633
0
LINE
8
BLACK
6
CONTINUOUS
10
28.9979
20
-54.7633
11
29.0556
21
-55.0036
0
LINE
8
BLACK
6
CONTINUOUS
10
29.0556
20
-55.0036
11
29.075
21
-55.25
0
LINE
8
BLACK
6
CONTINUOUS
10
29.075
20
-55.25
11
29.0556
21
-55.4964
0
LINE
8
BLACK
6
CONTINUOUS
10
29.0556
20
-55.4964
11
28.9979
21
-55.7367
0
LINE
8
BLACK
6
CONTINUOUS
10
28.9979
20
-55.7367
11
28.9033
21
-55.965
0
LINE
8
BLACK
6
CONTINUOUS
10
28.9033
20
-55.965
11
28.7742
21
-56.1758
0
LINE
8
BLACK
6
CONTINUOUS
10
28.7742
20
-56.1758
11
28.6137
21
-56.3637
0
LINE
8
BLACK
6
CONTINUOUS
10
28.6137
20
-56.3637
11
28.4258
21
-56.5242
0
LINE
8
BLACK
6
CONTINUOUS
10
28.4258
20
-56.5242
11
28.215
21
-56.6533
0
LINE
8
BLACK
6
CONTINUOUS
10
28.215
20
-56.6533
11
27.9867
21
-56.7479
0
LINE
8
BLACK
6
CONTINUOUS
10
27.9867
20
-56.7479
11
27.7464
21
-56.8056
0
LINE
8
BLACK
6
CONTINUOUS
10
27.7464
20
-56.8056
11
27.5
21
-56.825
0
LINE
8
BLACK
6
CONTINUOUS
10
27.5
20
-56.825
11
27.2536
21
-56.8056
0
LINE
8
BLACK
6
CONTINUOUS
10
27.2536
20
-56.8056
11
27.0133
21
-56.7479
0
LINE
8
BLACK
6
CONTINUOUS
10
27.0133
20
-56.7479
11
26.785
21
-56.6533
0
LINE
8
BLACK
6
CONTINUOUS
10
26.785
20
-56.6533
11
26.5742
21
-56.5242
0
LINE
8
BLACK
6
CONTINUOUS
10
26.5742
20
-56.5242
11
26.3863
21
-56.3637
0
LINE
8
BLACK
6
CONTINUOUS
10
26.3863
20
-56.3637
11
26.2258
21
-56.1758
0
LINE
8
BLACK
6
CONTINUOUS
10
26.2258
20
-56.1758
11
26.0967
21
-55.965
0
LINE
8
BLACK
6
CONTINUOUS
10
26.0967
20
-55.965
11
26.0021
21
-55.7367
0
LINE
8
BLACK
6
CONTINUOUS
10
26.0021
20
-55.7367
11
25.9444
21
-55.4964
0
LINE
8
BLACK
6
CONTINUOUS
10
25.9444
20
-55.4964
11
25.925
21
-55.25
0
LINE
8
BLACK
6
CONTINUOUS
10
25.925
20
-55.25
11
25.9277
21
-55.2151
0
LINE
8
BLACK
6
CONTINUOUS
10
25.9277
20
-55.2151
11
25.9444
21
-55.0036
0
LINE
8
BLACK
6
CONTINUOUS
10
25.9444
20
-55.0036
11
26.0021
21
-54.7633
0
LINE
8
BLACK
6
CONTINUOUS
10
26.1355
20
-55.6776
11
26.2237
21
-55.8947
0
LINE
8
BLACK
6
CONTINUOUS
10
26.2237
20
-55.8947
11
26.3461
21
-56.0945
0
LINE
8
BLACK
6
CONTINUOUS
10
26.3461
20
-56.0945
11
26.4996
21
-56.2716
0
LINE
8
BLACK
6
CONTINUOUS
10
26.4996
20
-56.2716
11
26.6799
21
-56.4213
0
LINE
8
BLACK
6
CONTINUOUS
10
26.6799
20
-56.4213
11
26.8822
21
-56.5395
0
LINE
8
BLACK
6
CONTINUOUS
10
26.8822
20
-56.5395
11
27.1011
21
-56.6231
0
LINE
8
BLACK
6
CONTINUOUS
10
27.1011
20
-56.6231
11
27.3307
21
-56.6698
0
LINE
8
BLACK
6
CONTINUOUS
10
27.3307
20
-56.6698
11
27.5649
21
-56.6784
0
LINE
8
BLACK
6
CONTINUOUS
10
27.5649
20
-56.6784
11
27.7973
21
-56.6486
0
LINE
8
BLACK
6
CONTINUOUS
10
27.7973
20
-56.6486
11
28.0217
21
-56.5813
0
LINE
8
BLACK
6
CONTINUOUS
10
28.0217
20
-56.5813
11
28.2322
21
-56.4782
0
LINE
8
BLACK
6
CONTINUOUS
10
28.2322
20
-56.4782
11
28.4229
21
-56.3421
0
LINE
8
BLACK
6
CONTINUOUS
10
28.4229
20
-56.3421
11
28.5889
21
-56.1767
0
LINE
8
BLACK
6
CONTINUOUS
10
28.5889
20
-56.1767
11
28.7256
21
-55.9864
0
LINE
8
BLACK
6
CONTINUOUS
10
28.7256
20
-55.9864
11
28.8295
21
-55.7764
0
LINE
8
BLACK
6
CONTINUOUS
10
28.8295
20
-55.7764
11
28.8976
21
-55.5522
0
LINE
8
BLACK
6
CONTINUOUS
10
28.8976
20
-55.5522
11
28.9282
21
-55.3198
0
LINE
8
BLACK
6
CONTINUOUS
10
28.9282
20
-55.3198
11
28.9299
21
-55.25
0
LINE
8
BLACK
6
CONTINUOUS
10
28.9299
20
-55.25
11
28.9107
21
-55.0165
0
LINE
8
BLACK
6
CONTINUOUS
10
28.9107
20
-55.0165
11
28.8536
21
-54.7892
0
LINE
8
BLACK
6
CONTINUOUS
10
28.8536
20
-54.7892
11
28.7602
21
-54.5743
0
LINE
8
BLACK
6
CONTINUOUS
10
28.7602
20
-54.5743
11
28.6329
21
-54.3776
0
LINE
8
BLACK
6
CONTINUOUS
10
28.6329
20
-54.3776
11
28.4752
21
-54.2042
0
LINE
8
BLACK
6
CONTINUOUS
10
28.4752
20
-54.2042
11
28.2913
21
-54.059
0
LINE
8
BLACK
6
CONTINUOUS
10
28.2913
20
-54.059
11
28.0861
21
-53.9458
0
LINE
8
BLACK
6
CONTINUOUS
10
28.0861
20
-53.9458
11
27.8653
21
-53.8676
0
LINE
8
BLACK
6
CONTINUOUS
10
27.8653
20
-53.8676
11
27.6346
21
-53.8265
0
LINE
8
BLACK
6
CONTINUOUS
10
27.6346
20
-53.8265
11
27.4003
21
-53.8236
0
LINE
8
BLACK
6
CONTINUOUS
10
27.4003
20
-53.8236
11
27.1686
21
-53.859
0
LINE
8
BLACK
6
CONTINUOUS
10
27.1686
20
-53.859
11
26.9459
21
-53.9318
0
LINE
8
BLACK
6
CONTINUOUS
10
26.9459
20
-53.9318
11
26.738
21
-54.04
0
LINE
8
BLACK
6
CONTINUOUS
10
26.738
20
-54.04
11
26.5507
21
-54.1807
0
LINE
8
BLACK
6
CONTINUOUS
10
26.5507
20
-54.1807
11
26.3888
21
-54.3501
0
LINE
8
BLACK
6
CONTINUOUS
10
26.3888
20
-54.3501
11
26.2567
21
-54.5437
0
LINE
8
BLACK
6
CONTINUOUS
10
26.2567
20
-54.5437
11
26.1581
21
-54.7563
0
LINE
8
BLACK
6
CONTINUOUS
10
26.1581
20
-54.7563
11
26.0954
21
-54.9821
0
LINE
8
BLACK
6
CONTINUOUS
10
26.0954
20
-54.9821
11
26.0705
21
-55.2151
0
LINE
8
BLACK
6
CONTINUOUS
10
26.0705
20
-55.2151
11
26.084
21
-55.449
0
LINE
8
BLACK
6
CONTINUOUS
10
26.084
20
-55.449
11
26.1355
21
-55.6776
0
LINE
8
BLACK
6
CONTINUOUS
10
53.6553
20
-36.2359
11
53.7549
21
-35.8644
0
LINE
8
BLACK
6
CONTINUOUS
10
53.7549
20
-35.8644
11
53.8927
21
-35.5052
0
LINE
8
BLACK
6
CONTINUOUS
10
53.8927
20
-35.5052
11
54.0674
21
-35.1625
0
LINE
8
BLACK
6
CONTINUOUS
10
54.0674
20
-35.1625
11
54.2769
21
-34.8399
0
LINE
8
BLACK
6
CONTINUOUS
10
54.2769
20
-34.8399
11
54.5189
21
-34.5409
0
LINE
8
BLACK
6
CONTINUOUS
10
54.5189
20
-34.5409
11
54.7909
21
-34.2689
0
LINE
8
BLACK
6
CONTINUOUS
10
54.7909
20
-34.2689
11
55.0899
21
-34.0269
0
LINE
8
BLACK
6
CONTINUOUS
10
55.0899
20
-34.0269
11
55.4125
21
-33.8174
0
LINE
8
BLACK
6
CONTINUOUS
10
55.4125
20
-33.8174
11
55.7552
21
-33.6427
0
LINE
8
BLACK
6
CONTINUOUS
10
55.7552
20
-33.6427
11
56.1144
21
-33.5049
0
LINE
8
BLACK
6
CONTINUOUS
10
56.1144
20
-33.5049
11
56.4859
21
-33.4053
0
LINE
8
BLACK
6
CONTINUOUS
10
56.4859
20
-33.4053
11
56.8659
21
-33.3451
0
LINE
8
BLACK
6
CONTINUOUS
10
56.8659
20
-33.3451
11
57.25
21
-33.325
0
LINE
8
BLACK
6
CONTINUOUS
10
57.25
20
-33.325
11
57.6341
21
-33.3451
0
LINE
8
BLACK
6
CONTINUOUS
10
57.6341
20
-33.3451
11
58.0141
21
-33.4053
0
LINE
8
BLACK
6
CONTINUOUS
10
58.0141
20
-33.4053
11
58.3856
21
-33.5049
0
LINE
8
BLACK
6
CONTINUOUS
10
58.3856
20
-33.5049
11
58.7448
21
-33.6427
0
LINE
8
BLACK
6
CONTINUOUS
10
58.7448
20
-33.6427
11
59.0875
21
-33.8174
0
LINE
8
BLACK
6
CONTINUOUS
10
59.0875
20
-33.8174
11
59.4101
21
-34.0269
0
LINE
8
BLACK
6
CONTINUOUS
10
59.4101
20
-34.0269
11
59.7091
21
-34.2689
0
LINE
8
BLACK
6
CONTINUOUS
10
59.7091
20
-34.2689
11
59.9811
21
-34.5409
0
LINE
8
BLACK
6
CONTINUOUS
10
59.9811
20
-34.5409
11
60.2231
21
-34.8399
0
LINE
8
BLACK
6
CONTINUOUS
10
60.2231
20
-34.8399
11
60.4326
21
-35.1625
0
LINE
8
BLACK
6
CONTINUOUS
10
60.4326
20
-35.1625
11
60.6073
21
-35.5052
0
LINE
8
BLACK
6
CONTINUOUS
10
60.6073
20
-35.5052
11
60.7451
21
-35.8644
0
LINE
8
BLACK
6
CONTINUOUS
10
60.7451
20
-35.8644
11
60.8447
21
-36.2359
0
LINE
8
BLACK
6
CONTINUOUS
10
60.8447
20
-36.2359
11
60.9049
21
-36.6159
0
LINE
8
BLACK
6
CONTINUOUS
10
60.9049
20
-36.6159
11
60.925
21
-37
0
LINE
8
BLACK
6
CONTINUOUS
10
60.925
20
-37
11
60.9049
21
-37.3841
0
LINE
8
BLACK
6
CONTINUOUS
10
60.9049
20
-37.3841
11
60.8447
21
-37.7641
0
LINE
8
BLACK
6
CONTINUOUS
10
60.8447
20
-37.7641
11
60.7451
21
-38.1356
0
LINE
8
BLACK
6
CONTINUOUS
10
60.7451
20
-38.1356
11
60.6073
21
-38.4948
0
LINE
8
BLACK
6
CONTINUOUS
10
60.6073
20
-38.4948
11
60.4326
21
-38.8375
0
LINE
8
BLACK
6
CONTINUOUS
10
60.4326
20
-38.8375
11
60.2231
21
-39.1601
0
LINE
8
BLACK
6
CONTINUOUS
10
60.2231
20
-39.1601
11
59.9811
21
-39.4591
0
LINE
8
BLACK
6
CONTINUOUS
10
59.9811
20
-39.4591
11
59.7091
21
-39.7311
0
LINE
8
BLACK
6
CONTINUOUS
10
59.7091
20
-39.7311
11
59.4101
21
-39.9731
0
LINE
8
BLACK
6
CONTINUOUS
10
59.4101
20
-39.9731
11
59.0875
21
-40.1826
0
LINE
8
BLACK
6
CONTINUOUS
10
59.0875
20
-40.1826
11
58.7448
21
-40.3573
0
LINE
8
BLACK
6
CONTINUOUS
10
58.7448
20
-40.3573
11
58.3856
21
-40.4951
0
LINE
8
BLACK
6
CONTINUOUS
10
58.3856
20
-40.4951
11
58.0141
21
-40.5947
0
LINE
8
BLACK
6
CONTINUOUS
10
58.0141
20
-40.5947
11
57.6341
21
-40.6549
0
LINE
8
BLACK
6
CONTINUOUS
10
57.6341
20
-40.6549
11
57.25
21
-40.675
0
LINE
8
BLACK
6
CONTINUOUS
10
57.25
20
-40.675
11
56.8659
21
-40.6549
0
LINE
8
BLACK
6
CONTINUOUS
10
56.8659
20
-40.6549
11
56.4859
21
-40.5947
0
LINE
8
BLACK
6
CONTINUOUS
10
56.4859
20
-40.5947
11
56.1144
21
-40.4951
0
LINE
8
BLACK
6
CONTINUOUS
10
56.1144
20
-40.4951
11
55.7552
21
-40.3573
0
LINE
8
BLACK
6
CONTINUOUS
10
55.7552
20
-40.3573
11
55.4125
21
-40.1826
0
LINE
8
BLACK
6
CONTINUOUS
10
55.4125
20
-40.1826
11
55.0899
21
-39.9731
0
LINE
8
BLACK
6
CONTINUOUS
10
55.0899
20
-39.9731
11
54.7909
21
-39.7311
0
LINE
8
BLACK
6
CONTINUOUS
10
54.7909
20
-39.7311
11
54.5189
21
-39.4591
0
LINE
8
BLACK
6
CONTINUOUS
10
54.5189
20
-39.4591
11
54.2769
21
-39.1601
0
LINE
8
BLACK
6
CONTINUOUS
10
54.2769
20
-39.1601
11
54.0674
21
-38.8375
0
LINE
8
BLACK
6
CONTINUOUS
10
54.0674
20
-38.8375
11
53.8927
21
-38.4948
0
LINE
8
BLACK
6
CONTINUOUS
10
53.8927
20
-38.4948
11
53.7549
21
-38.1356
0
LINE
8
BLACK
6
CONTINUOUS
10
53.7549
20
-38.1356
11
53.6553
21
-37.7641
0
LINE
8
BLACK
6
CONTINUOUS
10
53.6553
20
-37.7641
11
53.5951
21
-37.3841
0
LINE
8
BLACK
6
CONTINUOUS
10
53.5951
20
-37.3841
11
53.575
21
-37
0
LINE
8
BLACK
6
CONTINUOUS
10
53.575
20
-37
11
53.5951
21
-36.6159
0
LINE
8
BLACK
6
CONTINUOUS
10
53.5951
20
-36.6159
11
53.6553
21
-36.2359
0
LINE
8
BLACK
6
CONTINUOUS
10
53.7973
20
-37.7339
11
53.8929
21
-38.0908
0
LINE
8
BLACK
6
CONTINUOUS
10
53.8929
20
-38.0908
11
54.0253
21
-38.4357
0
LINE
8
BLACK
6
CONTINUOUS
10
54.0253
20
-38.4357
11
54.1931
21
-38.7649
0
LINE
8
BLACK
6
CONTINUOUS
10
54.1931
20
-38.7649
11
54.3943
21
-39.0748
0
LINE
8
BLACK
6
CONTINUOUS
10
54.3943
20
-39.0748
11
54.6268
21
-39.3619
0
LINE
8
BLACK
6
CONTINUOUS
10
54.6268
20
-39.3619
11
54.8881
21
-39.6232
0
LINE
8
BLACK
6
CONTINUOUS
10
54.8881
20
-39.6232
11
55.1752
21
-39.8557
0
LINE
8
BLACK
6
CONTINUOUS
10
55.1752
20
-39.8557
11
55.4851
21
-40.0569
0
LINE
8
BLACK
6
CONTINUOUS
10
55.4851
20
-40.0569
11
55.8143
21
-40.2247
0
LINE
8
BLACK
6
CONTINUOUS
10
55.8143
20
-40.2247
11
56.1592
21
-40.3571
0
LINE
8
BLACK
6
CONTINUOUS
10
56.1592
20
-40.3571
11
56.5161
21
-40.4527
0
LINE
8
BLACK
6
CONTINUOUS
10
56.5161
20
-40.4527
11
56.881
21
-40.5105
0
LINE
8
BLACK
6
CONTINUOUS
10
56.881
20
-40.5105
11
57.25
21
-40.5298
0
LINE
8
BLACK
6
CONTINUOUS
10
57.25
20
-40.5298
11
57.619
21
-40.5105
0
LINE
8
BLACK
6
CONTINUOUS
10
57.619
20
-40.5105
11
57.9839
21
-40.4527
0
LINE
8
BLACK
6
CONTINUOUS
10
57.9839
20
-40.4527
11
58.3408
21
-40.3571
0
LINE
8
BLACK
6
CONTINUOUS
10
58.3408
20
-40.3571
11
58.6857
21
-40.2247
0
LINE
8
BLACK
6
CONTINUOUS
10
58.6857
20
-40.2247
11
59.0149
21
-40.0569
0
LINE
8
BLACK
6
CONTINUOUS
10
59.0149
20
-40.0569
11
59.3248
21
-39.8557
0
LINE
8
BLACK
6
CONTINUOUS
10
59.3248
20
-39.8557
11
59.6119
21
-39.6232
0
LINE
8
BLACK
6
CONTINUOUS
10
59.6119
20
-39.6232
11
59.8732
21
-39.3619
0
LINE
8
BLACK
6
CONTINUOUS
10
59.8732
20
-39.3619
11
60.1057
21
-39.0748
0
LINE
8
BLACK
6
CONTINUOUS
10
60.1057
20
-39.0748
11
60.3069
21
-38.7649
0
LINE
8
BLACK
6
CONTINUOUS
10
60.3069
20
-38.7649
11
60.4747
21
-38.4357
0
LINE
8
BLACK
6
CONTINUOUS
10
60.4747
20
-38.4357
11
60.6071
21
-38.0908
0
LINE
8
BLACK
6
CONTINUOUS
10
60.6071
20
-38.0908
11
60.7027
21
-37.7339
0
LINE
8
BLACK
6
CONTINUOUS
10
60.7027
20
-37.7339
11
60.7605
21
-37.369
0
LINE
8
BLACK
6
CONTINUOUS
10
60.7605
20
-37.369
11
60.7798
21
-37
0
LINE
8
BLACK
6
CONTINUOUS
10
60.7798
20
-37
11
60.7605
21
-36.631
0
LINE
8
BLACK
6
CONTINUOUS
10
60.7605
20
-36.631
11
60.7027
21
-36.2661
0
LINE
8
BLACK
6
CONTINUOUS
10
60.7027
20
-36.2661
11
60.6071
21
-35.9092
0
LINE
8
BLACK
6
CONTINUOUS
10
60.6071
20
-35.9092
11
60.4747
21
-35.5643
0
LINE
8
BLACK
6
CONTINUOUS
10
60.4747
20
-35.5643
11
60.3069
21
-35.2351
0
LINE
8
BLACK
6
CONTINUOUS
10
60.3069
20
-35.2351
11
60.1057
21
-34.9252
0
LINE
8
BLACK
6
CONTINUOUS
10
60.1057
20
-34.9252
11
59.8732
21
-34.6381
0
LINE
8
BLACK
6
CONTINUOUS
10
59.8732
20
-34.6381
11
59.6119
21
-34.3768
0
LINE
8
BLACK
6
CONTINUOUS
10
59.6119
20
-34.3768
11
59.3248
21
-34.1443
0
LINE
8
BLACK
6
CONTINUOUS
10
59.3248
20
-34.1443
11
59.0149
21
-33.9431
0
LINE
8
BLACK
6
CONTINUOUS
10
59.0149
20
-33.9431
11
58.6857
21
-33.7753
0
LINE
8
BLACK
6
CONTINUOUS
10
58.6857
20
-33.7753
11
58.3408
21
-33.6429
0
LINE
8
BLACK
6
CONTINUOUS
10
58.3408
20
-33.6429
11
57.9839
21
-33.5473
0
LINE
8
BLACK
6
CONTINUOUS
10
57.9839
20
-33.5473
11
57.619
21
-33.4895
0
LINE
8
BLACK
6
CONTINUOUS
10
57.619
20
-33.4895
11
57.25
21
-33.4702
0
LINE
8
BLACK
6
CONTINUOUS
10
57.25
20
-33.4702
11
56.881
21
-33.4895
0
LINE
8
BLACK
6
CONTINUOUS
10
56.881
20
-33.4895
11
56.5161
21
-33.5473
0
LINE
8
BLACK
6
CONTINUOUS
10
56.5161
20
-33.5473
11
56.1592
21
-33.6429
0
LINE
8
BLACK
6
CONTINUOUS
10
56.1592
20
-33.6429
11
55.8143
21
-33.7753
0
LINE
8
BLACK
6
CONTINUOUS
10
55.8143
20
-33.7753
11
55.4851
21
-33.9431
0
LINE
8
BLACK
6
CONTINUOUS
10
55.4851
20
-33.9431
11
55.1752
21
-34.1443
0
LINE
8
BLACK
6
CONTINUOUS
10
55.1752
20
-34.1443
11
54.8881
21
-34.3768
0
LINE
8
BLACK
6
CONTINUOUS
10
54.8881
20
-34.3768
11
54.6268
21
-34.6381
0
LINE
8
BLACK
6
CONTINUOUS
10
54.6268
20
-34.6381
11
54.3943
21
-34.9252
0
LINE
8
BLACK
6
CONTINUOUS
10
54.3943
20
-34.9252
11
54.1931
21
-35.2351
0
LINE
8
BLACK
6
CONTINUOUS
10
54.1931
20
-35.2351
11
54.0253
21
-35.5643
0
LINE
8
BLACK
6
CONTINUOUS
10
54.0253
20
-35.5643
11
53.8929
21
-35.9092
0
LINE
8
BLACK
6
CONTINUOUS
10
53.8929
20
-35.9092
11
53.7973
21
-36.2661
0
LINE
8
BLACK
6
CONTINUOUS
10
53.7973
20
-36.2661
11
53.7395
21
-36.631
0
LINE
8
BLACK
6
CONTINUOUS
10
53.7395
20
-36.631
11
53.7202
21
-37
0
LINE
8
BLACK
6
CONTINUOUS
10
53.7202
20
-37
11
53.7395
21
-37.369
0
LINE
8
BLACK
6
CONTINUOUS
10
53.7395
20
-37.369
11
53.7973
21
-37.7339
0
LINE
8
BLACK
6
CONTINUOUS
10
42.1
20
-36.6021
11
42.164
21
-36.2534
0
LINE
8
BLACK
6
CONTINUOUS
10
42.164
20
-36.2534
11
42.2665
21
-35.9141
0
LINE
8
BLACK
6
CONTINUOUS
10
42.2665
20
-35.9141
11
42.4061
21
-35.5883
0
LINE
8
BLACK
6
CONTINUOUS
10
42.4061
20
-35.5883
11
42.5812
21
-35.2801
0
LINE
8
BLACK
6
CONTINUOUS
10
42.5812
20
-35.2801
11
42.7896
21
-34.9933
0
LINE
8
BLACK
6
CONTINUOUS
10
42.7896
20
-34.9933
11
43.0286
21
-34.7315
0
LINE
8
BLACK
6
CONTINUOUS
10
43.0286
20
-34.7315
11
43.2953
21
-34.4981
0
LINE
8
BLACK
6
CONTINUOUS
10
43.2953
20
-34.4981
11
43.5863
21
-34.2958
0
LINE
8
BLACK
6
CONTINUOUS
10
43.5863
20
-34.2958
11
43.8982
21
-34.1272
0
LINE
8
BLACK
6
CONTINUOUS
10
43.8982
20
-34.1272
11
44.2268
21
-33.9944
0
LINE
8
BLACK
6
CONTINUOUS
10
44.2268
20
-33.9944
11
44.5682
21
-33.8991
0
LINE
8
BLACK
6
CONTINUOUS
10
44.5682
20
-33.8991
11
44.9181
21
-33.8424
0
LINE
8
BLACK
6
CONTINUOUS
10
44.9181
20
-33.8424
11
45.2722
21
-33.8251
0
LINE
8
BLACK
6
CONTINUOUS
10
45.2722
20
-33.8251
11
45.6259
21
-33.8473
0
LINE
8
BLACK
6
CONTINUOUS
10
45.6259
20
-33.8473
11
45.975
21
-33.9089
0
LINE
8
BLACK
6
CONTINUOUS
10
45.975
20
-33.9089
11
46.3151
21
-34.009
0
LINE
8
BLACK
6
CONTINUOUS
10
46.3151
20
-34.009
11
46.6418
21
-34.1463
0
LINE
8
BLACK
6
CONTINUOUS
10
46.6418
20
-34.1463
11
46.9512
21
-34.3193
0
LINE
8
BLACK
6
CONTINUOUS
10
46.9512
20
-34.3193
11
47.2395
21
-34.5256
0
LINE
8
BLACK
6
CONTINUOUS
10
47.2395
20
-34.5256
11
47.5029
21
-34.7628
0
LINE
8
BLACK
6
CONTINUOUS
10
47.5029
20
-34.7628
11
47.7382
21
-35.0279
0
LINE
8
BLACK
6
CONTINUOUS
10
47.7382
20
-35.0279
11
47.9426
21
-35.3175
0
LINE
8
BLACK
6
CONTINUOUS
10
47.9426
20
-35.3175
11
48.1133
21
-35.6281
0
LINE
8
BLACK
6
CONTINUOUS
10
48.1133
20
-35.6281
11
48.2484
21
-35.9558
0
LINE
8
BLACK
6
CONTINUOUS
10
48.2484
20
-35.9558
11
48.3461
21
-36.2966
0
LINE
8
BLACK
6
CONTINUOUS
10
48.3461
20
-36.2966
11
48.4052
21
-36.6461
0
LINE
8
BLACK
6
CONTINUOUS
10
48.4052
20
-36.6461
11
48.425
21
-37
0
LINE
8
BLACK
6
CONTINUOUS
10
48.425
20
-37
11
48.4238
21
-37.0887
0
LINE
8
BLACK
6
CONTINUOUS
10
48.4238
20
-37.0887
11
48.3941
21
-37.4419
0
LINE
8
BLACK
6
CONTINUOUS
10
48.3941
20
-37.4419
11
48.3253
21
-37.7896
0
LINE
8
BLACK
6
CONTINUOUS
10
48.3253
20
-37.7896
11
48.2181
21
-38.1275
0
LINE
8
BLACK
6
CONTINUOUS
10
48.2181
20
-38.1275
11
48.0739
21
-38.4513
0
LINE
8
BLACK
6
CONTINUOUS
10
48.0739
20
-38.4513
11
47.8945
21
-38.757
0
LINE
8
BLACK
6
CONTINUOUS
10
47.8945
20
-38.757
11
47.6822
21
-39.0409
0
LINE
8
BLACK
6
CONTINUOUS
10
47.6822
20
-39.0409
11
47.4395
21
-39.2992
0
LINE
8
BLACK
6
CONTINUOUS
10
47.4395
20
-39.2992
11
47.1696
21
-39.529
0
LINE
8
BLACK
6
CONTINUOUS
10
47.1696
20
-39.529
11
46.8757
21
-39.7272
0
LINE
8
BLACK
6
CONTINUOUS
10
46.8757
20
-39.7272
11
46.5616
21
-39.8914
0
LINE
8
BLACK
6
CONTINUOUS
10
46.5616
20
-39.8914
11
46.2311
21
-40.0196
0
LINE
8
BLACK
6
CONTINUOUS
10
46.2311
20
-40.0196
11
45.8884
21
-40.1102
0
LINE
8
BLACK
6
CONTINUOUS
10
45.8884
20
-40.1102
11
45.5378
21
-40.1619
0
LINE
8
BLACK
6
CONTINUOUS
10
45.5378
20
-40.1619
11
45.1835
21
-40.1743
0
LINE
8
BLACK
6
CONTINUOUS
10
45.1835
20
-40.1743
11
44.8301
21
-40.1471
0
LINE
8
BLACK
6
CONTINUOUS
10
44.8301
20
-40.1471
11
44.4819
21
-40.0807
0
LINE
8
BLACK
6
CONTINUOUS
10
44.4819
20
-40.0807
11
44.1433
21
-39.9759
0
LINE
8
BLACK
6
CONTINUOUS
10
44.1433
20
-39.9759
11
43.8185
21
-39.834
0
LINE
8
BLACK
6
CONTINUOUS
10
43.8185
20
-39.834
11
43.5115
21
-39.6567
0
LINE
8
BLACK
6
CONTINUOUS
10
43.5115
20
-39.6567
11
43.2262
21
-39.4464
0
LINE
8
BLACK
6
CONTINUOUS
10
43.2262
20
-39.4464
11
42.9661
21
-39.2055
0
LINE
8
BLACK
6
CONTINUOUS
10
42.9661
20
-39.2055
11
42.7345
21
-38.9372
0
LINE
8
BLACK
6
CONTINUOUS
10
42.7345
20
-38.9372
11
42.5342
21
-38.6447
0
LINE
8
BLACK
6
CONTINUOUS
10
42.5342
20
-38.6447
11
42.3678
21
-38.3318
0
LINE
8
BLACK
6
CONTINUOUS
10
42.3678
20
-38.3318
11
42.2373
21
-38.0022
0
LINE
8
BLACK
6
CONTINUOUS
10
42.2373
20
-38.0022
11
42.1444
21
-37.6601
0
LINE
8
BLACK
6
CONTINUOUS
10
42.1444
20
-37.6601
11
42.0902
21
-37.3098
0
LINE
8
BLACK
6
CONTINUOUS
10
42.0902
20
-37.3098
11
42.0754
21
-36.9577
0
LINE
8
BLACK
6
CONTINUOUS
10
42.0754
20
-36.9577
11
42.0753
21
-36.9557
0
LINE
8
BLACK
6
CONTINUOUS
10
42.0753
20
-36.9557
11
42.1
21
-36.6021
0
LINE
8
BLACK
6
CONTINUOUS
10
42.2864
20
-37.6299
11
42.3751
21
-37.9563
0
LINE
8
BLACK
6
CONTINUOUS
10
42.3751
20
-37.9563
11
42.4996
21
-38.2708
0
LINE
8
BLACK
6
CONTINUOUS
10
42.4996
20
-38.2708
11
42.6584
21
-38.5695
0
LINE
8
BLACK
6
CONTINUOUS
10
42.6584
20
-38.5695
11
42.8495
21
-38.8486
0
LINE
8
BLACK
6
CONTINUOUS
10
42.8495
20
-38.8486
11
43.0706
21
-39.1047
0
LINE
8
BLACK
6
CONTINUOUS
10
43.0706
20
-39.1047
11
43.3188
21
-39.3345
0
LINE
8
BLACK
6
CONTINUOUS
10
43.3188
20
-39.3345
11
43.591
21
-39.5352
0
LINE
8
BLACK
6
CONTINUOUS
10
43.591
20
-39.5352
11
43.8839
21
-39.7043
0
LINE
8
BLACK
6
CONTINUOUS
10
43.8839
20
-39.7043
11
44.1939
21
-39.8397
0
LINE
8
BLACK
6
CONTINUOUS
10
44.1939
20
-39.8397
11
44.517
21
-39.9398
0
LINE
8
BLACK
6
CONTINUOUS
10
44.517
20
-39.9398
11
44.8493
21
-40.0032
0
LINE
8
BLACK
6
CONTINUOUS
10
44.8493
20
-40.0032
11
45.1865
21
-40.0291
0
LINE
8
BLACK
6
CONTINUOUS
10
45.1865
20
-40.0291
11
45.5246
21
-40.0173
0
LINE
8
BLACK
6
CONTINUOUS
10
45.5246
20
-40.0173
11
45.8592
21
-39.9679
0
LINE
8
BLACK
6
CONTINUOUS
10
45.8592
20
-39.9679
11
46.1862
21
-39.8815
0
LINE
8
BLACK
6
CONTINUOUS
10
46.1862
20
-39.8815
11
46.5016
21
-39.7592
0
LINE
8
BLACK
6
CONTINUOUS
10
46.5016
20
-39.7592
11
46.8014
21
-39.6024
0
LINE
8
BLACK
6
CONTINUOUS
10
46.8014
20
-39.6024
11
47.0818
21
-39.4133
0
LINE
8
BLACK
6
CONTINUOUS
10
47.0818
20
-39.4133
11
47.3394
21
-39.1941
0
LINE
8
BLACK
6
CONTINUOUS
10
47.3394
20
-39.1941
11
47.5709
21
-38.9475
0
LINE
8
BLACK
6
CONTINUOUS
10
47.5709
20
-38.9475
11
47.7736
21
-38.6766
0
LINE
8
BLACK
6
CONTINUOUS
10
47.7736
20
-38.6766
11
47.9447
21
-38.3849
0
LINE
8
BLACK
6
CONTINUOUS
10
47.9447
20
-38.3849
11
48.0823
21
-38.0759
0
LINE
8
BLACK
6
CONTINUOUS
10
48.0823
20
-38.0759
11
48.1846
21
-37.7535
0
LINE
8
BLACK
6
CONTINUOUS
10
48.1846
20
-37.7535
11
48.2503
21
-37.4217
0
LINE
8
BLACK
6
CONTINUOUS
10
48.2503
20
-37.4217
11
48.2786
21
-37.0846
0
LINE
8
BLACK
6
CONTINUOUS
10
48.2786
20
-37.0846
11
48.2798
21
-37
0
LINE
8
BLACK
6
CONTINUOUS
10
48.2798
20
-37
11
48.2609
21
-36.6623
0
LINE
8
BLACK
6
CONTINUOUS
10
48.2609
20
-36.6623
11
48.2045
21
-36.3288
0
LINE
8
BLACK
6
CONTINUOUS
10
48.2045
20
-36.3288
11
48.1112
21
-36.0036
0
LINE
8
BLACK
6
CONTINUOUS
10
48.1112
20
-36.0036
11
47.9823
21
-35.6909
0
LINE
8
BLACK
6
CONTINUOUS
10
47.9823
20
-35.6909
11
47.8194
21
-35.3945
0
LINE
8
BLACK
6
CONTINUOUS
10
47.8194
20
-35.3945
11
47.6244
21
-35.1181
0
LINE
8
BLACK
6
CONTINUOUS
10
47.6244
20
-35.1181
11
47.3998
21
-34.8651
0
LINE
8
BLACK
6
CONTINUOUS
10
47.3998
20
-34.8651
11
47.1485
21
-34.6388
0
LINE
8
BLACK
6
CONTINUOUS
10
47.1485
20
-34.6388
11
46.8734
21
-34.4419
0
LINE
8
BLACK
6
CONTINUOUS
10
46.8734
20
-34.4419
11
46.5782
21
-34.2769
0
LINE
8
BLACK
6
CONTINUOUS
10
46.5782
20
-34.2769
11
46.2663
21
-34.1458
0
LINE
8
BLACK
6
CONTINUOUS
10
46.2663
20
-34.1458
11
45.9418
21
-34.0503
0
LINE
8
BLACK
6
CONTINUOUS
10
45.9418
20
-34.0503
11
45.6087
21
-33.9915
0
LINE
8
BLACK
6
CONTINUOUS
10
45.6087
20
-33.9915
11
45.2712
21
-33.9703
0
LINE
8
BLACK
6
CONTINUOUS
10
45.2712
20
-33.9703
11
44.9333
21
-33.9868
0
LINE
8
BLACK
6
CONTINUOUS
10
44.9333
20
-33.9868
11
44.5994
21
-34.0409
0
LINE
8
BLACK
6
CONTINUOUS
10
44.5994
20
-34.0409
11
44.2736
21
-34.1319
0
LINE
8
BLACK
6
CONTINUOUS
10
44.2736
20
-34.1319
11
43.96
21
-34.2586
0
LINE
8
BLACK
6
CONTINUOUS
10
43.96
20
-34.2586
11
43.6624
21
-34.4195
0
LINE
8
BLACK
6
CONTINUOUS
10
43.6624
20
-34.4195
11
43.3847
21
-34.6125
0
LINE
8
BLACK
6
CONTINUOUS
10
43.3847
20
-34.6125
11
43.1302
21
-34.8353
0
LINE
8
BLACK
6
CONTINUOUS
10
43.1302
20
-34.8353
11
42.9021
21
-35.0851
0
LINE
8
BLACK
6
CONTINUOUS
10
42.9021
20
-35.0851
11
42.7033
21
-35.3588
0
LINE
8
BLACK
6
CONTINUOUS
10
42.7033
20
-35.3588
11
42.5362
21
-35.6529
0
LINE
8
BLACK
6
CONTINUOUS
10
42.5362
20
-35.6529
11
42.403
21
-35.9638
0
LINE
8
BLACK
6
CONTINUOUS
10
42.403
20
-35.9638
11
42.3052
21
-36.2876
0
LINE
8
BLACK
6
CONTINUOUS
10
42.3052
20
-36.2876
11
42.2441
21
-36.6203
0
LINE
8
BLACK
6
CONTINUOUS
10
42.2441
20
-36.6203
11
42.2205
21
-36.9577
0
LINE
8
BLACK
6
CONTINUOUS
10
42.2205
20
-36.9577
11
42.2347
21
-37.2957
0
LINE
8
BLACK
6
CONTINUOUS
10
42.2347
20
-37.2957
11
42.2864
21
-37.6299
0
LINE
8
BLACK
6
CONTINUOUS
10
15.4545
20
-25.9978
11
15.5521
21
-25.7623
0
LINE
8
BLACK
6
CONTINUOUS
10
15.5521
20
-25.7623
11
15.6853
21
-25.5448
0
LINE
8
BLACK
6
CONTINUOUS
10
15.6853
20
-25.5448
11
15.851
21
-25.351
0
LINE
8
BLACK
6
CONTINUOUS
10
15.851
20
-25.351
11
16.0448
21
-25.1853
0
LINE
8
BLACK
6
CONTINUOUS
10
16.0448
20
-25.1853
11
16.2623
21
-25.0521
0
LINE
8
BLACK
6
CONTINUOUS
10
16.2623
20
-25.0521
11
16.4978
21
-24.9545
0
LINE
8
BLACK
6
CONTINUOUS
10
16.4978
20
-24.9545
11
16.7458
21
-24.895
0
LINE
8
BLACK
6
CONTINUOUS
10
16.7458
20
-24.895
11
17
21
-24.875
0
LINE
8
BLACK
6
CONTINUOUS
10
17
20
-24.875
11
17.2542
21
-24.895
0
LINE
8
BLACK
6
CONTINUOUS
10
17.2542
20
-24.895
11
17.5022
21
-24.9545
0
LINE
8
BLACK
6
CONTINUOUS
10
17.5022
20
-24.9545
11
17.7377
21
-25.0521
0
LINE
8
BLACK
6
CONTINUOUS
10
17.7377
20
-25.0521
11
17.9552
21
-25.1853
0
LINE
8
BLACK
6
CONTINUOUS
10
17.9552
20
-25.1853
11
18.149
21
-25.351
0
LINE
8
BLACK
6
CONTINUOUS
10
18.149
20
-25.351
11
18.3147
21
-25.5448
0
LINE
8
BLACK
6
CONTINUOUS
10
18.3147
20
-25.5448
11
18.4479
21
-25.7623
0
LINE
8
BLACK
6
CONTINUOUS
10
18.4479
20
-25.7623
11
18.5455
21
-25.9978
0
LINE
8
BLACK
6
CONTINUOUS
10
18.5455
20
-25.9978
11
18.605
21
-26.2458
0
LINE
8
BLACK
6
CONTINUOUS
10
18.605
20
-26.2458
11
18.625
21
-26.5
0
LINE
8
BLACK
6
CONTINUOUS
10
18.625
20
-26.5
11
18.605
21
-26.7542
0
LINE
8
BLACK
6
CONTINUOUS
10
18.605
20
-26.7542
11
18.5455
21
-27.0022
0
LINE
8
BLACK
6
CONTINUOUS
10
18.5455
20
-27.0022
11
18.4479
21
-27.2377
0
LINE
8
BLACK
6
CONTINUOUS
10
18.4479
20
-27.2377
11
18.3147
21
-27.4552
0
LINE
8
BLACK
6
CONTINUOUS
10
18.3147
20
-27.4552
11
18.149
21
-27.649
0
LINE
8
BLACK
6
CONTINUOUS
10
18.149
20
-27.649
11
17.9552
21
-27.8147
0
LINE
8
BLACK
6
CONTINUOUS
10
17.9552
20
-27.8147
11
17.7377
21
-27.9479
0
LINE
8
BLACK
6
CONTINUOUS
10
17.7377
20
-27.9479
11
17.5022
21
-28.0455
0
LINE
8
BLACK
6
CONTINUOUS
10
17.5022
20
-28.0455
11
17.2542
21
-28.105
0
LINE
8
BLACK
6
CONTINUOUS
10
17.2542
20
-28.105
11
17
21
-28.125
0
LINE
8
BLACK
6
CONTINUOUS
10
17
20
-28.125
11
16.7458
21
-28.105
0
LINE
8
BLACK
6
CONTINUOUS
10
16.7458
20
-28.105
11
16.4978
21
-28.0455
0
LINE
8
BLACK
6
CONTINUOUS
10
16.4978
20
-28.0455
11
16.2623
21
-27.9479
0
LINE
8
BLACK
6
CONTINUOUS
10
16.2623
20
-27.9479
11
16.0448
21
-27.8147
0
LINE
8
BLACK
6
CONTINUOUS
10
16.0448
20
-27.8147
11
15.851
21
-27.649
0
LINE
8
BLACK
6
CONTINUOUS
10
15.851
20
-27.649
11
15.6853
21
-27.4552
0
LINE
8
BLACK
6
CONTINUOUS
10
15.6853
20
-27.4552
11
15.5521
21
-27.2377
0
LINE
8
BLACK
6
CONTINUOUS
10
15.5521
20
-27.2377
11
15.4545
21
-27.0022
0
LINE
8
BLACK
6
CONTINUOUS
10
15.4545
20
-27.0022
11
15.395
21
-26.7542
0
LINE
8
BLACK
6
CONTINUOUS
10
15.395
20
-26.7542
11
15.375
21
-26.5
0
LINE
8
BLACK
6
CONTINUOUS
10
15.375
20
-26.5
11
15.3778
21
-26.4638
0
LINE
8
BLACK
6
CONTINUOUS
10
15.3778
20
-26.4638
11
15.395
21
-26.2458
0
LINE
8
BLACK
6
CONTINUOUS
10
15.395
20
-26.2458
11
15.4545
21
-25.9978
0
LINE
8
BLACK
6
CONTINUOUS
10
15.5877
20
-26.9426
11
15.6789
21
-27.1673
0
LINE
8
BLACK
6
CONTINUOUS
10
15.6789
20
-27.1673
11
15.8057
21
-27.3741
0
LINE
8
BLACK
6
CONTINUOUS
10
15.8057
20
-27.3741
11
15.9645
21
-27.5575
0
LINE
8
BLACK
6
CONTINUOUS
10
15.9645
20
-27.5575
11
16.1511
21
-27.7124
0
LINE
8
BLACK
6
CONTINUOUS
10
16.1511
20
-27.7124
11
16.3605
21
-27.8348
0
LINE
8
BLACK
6
CONTINUOUS
10
16.3605
20
-27.8348
11
16.5871
21
-27.9213
0
LINE
8
BLACK
6
CONTINUOUS
10
16.5871
20
-27.9213
11
16.8248
21
-27.9696
0
LINE
8
BLACK
6
CONTINUOUS
10
16.8248
20
-27.9696
11
17.0671
21
-27.9785
0
LINE
8
BLACK
6
CONTINUOUS
10
17.0671
20
-27.9785
11
17.3077
21
-27.9477
0
LINE
8
BLACK
6
CONTINUOUS
10
17.3077
20
-27.9477
11
17.54
21
-27.878
0
LINE
8
BLACK
6
CONTINUOUS
10
17.54
20
-27.878
11
17.7579
21
-27.7713
0
LINE
8
BLACK
6
CONTINUOUS
10
17.7579
20
-27.7713
11
17.9553
21
-27.6305
0
LINE
8
BLACK
6
CONTINUOUS
10
17.9553
20
-27.6305
11
18.1271
21
-27.4593
0
LINE
8
BLACK
6
CONTINUOUS
10
18.1271
20
-27.4593
11
18.2687
21
-27.2623
0
LINE
8
BLACK
6
CONTINUOUS
10
18.2687
20
-27.2623
11
18.3761
21
-27.0448
0
LINE
8
BLACK
6
CONTINUOUS
10
18.3761
20
-27.0448
11
18.4466
21
-26.8128
0
LINE
8
BLACK
6
CONTINUOUS
10
18.4466
20
-26.8128
11
18.4783
21
-26.5723
0
LINE
8
BLACK
6
CONTINUOUS
10
18.4783
20
-26.5723
11
18.4801
21
-26.5
0
LINE
8
BLACK
6
CONTINUOUS
10
18.4801
20
-26.5
11
18.4602
21
-26.2583
0
LINE
8
BLACK
6
CONTINUOUS
10
18.4602
20
-26.2583
11
18.4011
21
-26.023
0
LINE
8
BLACK
6
CONTINUOUS
10
18.4011
20
-26.023
11
18.3044
21
-25.8006
0
LINE
8
BLACK
6
CONTINUOUS
10
18.3044
20
-25.8006
11
18.1726
21
-25.597
0
LINE
8
BLACK
6
CONTINUOUS
10
18.1726
20
-25.597
11
18.0094
21
-25.4176
0
LINE
8
BLACK
6
CONTINUOUS
10
18.0094
20
-25.4176
11
17.8191
21
-25.2672
0
LINE
8
BLACK
6
CONTINUOUS
10
17.8191
20
-25.2672
11
17.6067
21
-25.15
0
LINE
8
BLACK
6
CONTINUOUS
10
17.6067
20
-25.15
11
17.3781
21
-25.069
0
LINE
8
BLACK
6
CONTINUOUS
10
17.3781
20
-25.069
11
17.1393
21
-25.0265
0
LINE
8
BLACK
6
CONTINUOUS
10
17.1393
20
-25.0265
11
16.8968
21
-25.0236
0
LINE
8
BLACK
6
CONTINUOUS
10
16.8968
20
-25.0236
11
16.657
21
-25.0602
0
LINE
8
BLACK
6
CONTINUOUS
10
16.657
20
-25.0602
11
16.4265
21
-25.1356
0
LINE
8
BLACK
6
CONTINUOUS
10
16.4265
20
-25.1356
11
16.2113
21
-25.2476
0
LINE
8
BLACK
6
CONTINUOUS
10
16.2113
20
-25.2476
11
16.0174
21
-25.3932
0
LINE
8
BLACK
6
CONTINUOUS
10
16.0174
20
-25.3932
11
15.8498
21
-25.5686
0
LINE
8
BLACK
6
CONTINUOUS
10
15.8498
20
-25.5686
11
15.7131
21
-25.7689
0
LINE
8
BLACK
6
CONTINUOUS
10
15.7131
20
-25.7689
11
15.611
21
-25.9889
0
LINE
8
BLACK
6
CONTINUOUS
10
15.611
20
-25.9889
11
15.5462
21
-26.2227
0
LINE
8
BLACK
6
CONTINUOUS
10
15.5462
20
-26.2227
11
15.5204
21
-26.4638
0
LINE
8
BLACK
6
CONTINUOUS
10
15.5204
20
-26.4638
11
15.5343
21
-26.706
0
LINE
8
BLACK
6
CONTINUOUS
10
15.5343
20
-26.706
11
15.5877
21
-26.9426
0
LINE
8
BLACK
6
CONTINUOUS
10
41.6553
20
-18.7359
11
41.7549
21
-18.3644
0
LINE
8
BLACK
6
CONTINUOUS
10
41.7549
20
-18.3644
11
41.8927
21
-18.0052
0
LINE
8
BLACK
6
CONTINUOUS
10
41.8927
20
-18.0052
11
42.0674
21
-17.6625
0
LINE
8
BLACK
6
CONTINUOUS
10
42.0674
20
-17.6625
11
42.2769
21
-17.3399
0
LINE
8
BLACK
6
CONTINUOUS
10
42.2769
20
-17.3399
11
42.5189
21
-17.0409
0
LINE
8
BLACK
6
CONTINUOUS
10
42.5189
20
-17.0409
11
42.7909
21
-16.7689
0
LINE
8
BLACK
6
CONTINUOUS
10
42.7909
20
-16.7689
11
43.0899
21
-16.5269
0
LINE
8
BLACK
6
CONTINUOUS
10
43.0899
20
-16.5269
11
43.4125
21
-16.3174
0
LINE
8
BLACK
6
CONTINUOUS
10
43.4125
20
-16.3174
11
43.7552
21
-16.1427
0
LINE
8
BLACK
6
CONTINUOUS
10
43.7552
20
-16.1427
11
44.1144
21
-16.0049
0
LINE
8
BLACK
6
CONTINUOUS
10
44.1144
20
-16.0049
11
44.4859
21
-15.9053
0
LINE
8
BLACK
6
CONTINUOUS
10
44.4859
20
-15.9053
11
44.8659
21
-15.8451
0
LINE
8
BLACK
6
CONTINUOUS
10
44.8659
20
-15.8451
11
45.25
21
-15.825
0
LINE
8
BLACK
6
CONTINUOUS
10
45.25
20
-15.825
11
45.6341
21
-15.8451
0
LINE
8
BLACK
6
CONTINUOUS
10
45.6341
20
-15.8451
11
46.0141
21
-15.9053
0
LINE
8
BLACK
6
CONTINUOUS
10
46.0141
20
-15.9053
11
46.3856
21
-16.0049
0
LINE
8
BLACK
6
CONTINUOUS
10
46.3856
20
-16.0049
11
46.7448
21
-16.1427
0
LINE
8
BLACK
6
CONTINUOUS
10
46.7448
20
-16.1427
11
47.0875
21
-16.3174
0
LINE
8
BLACK
6
CONTINUOUS
10
47.0875
20
-16.3174
11
47.4101
21
-16.5269
0
LINE
8
BLACK
6
CONTINUOUS
10
47.4101
20
-16.5269
11
47.7091
21
-16.7689
0
LINE
8
BLACK
6
CONTINUOUS
10
47.7091
20
-16.7689
11
47.9811
21
-17.0409
0
LINE
8
BLACK
6
CONTINUOUS
10
47.9811
20
-17.0409
11
48.2231
21
-17.3399
0
LINE
8
BLACK
6
CONTINUOUS
10
48.2231
20
-17.3399
11
48.4326
21
-17.6625
0
LINE
8
BLACK
6
CONTINUOUS
10
48.4326
20
-17.6625
11
48.6073
21
-18.0052
0
LINE
8
BLACK
6
CONTINUOUS
10
48.6073
20
-18.0052
11
48.7451
21
-18.3644
0
LINE
8
BLACK
6
CONTINUOUS
10
48.7451
20
-18.3644
11
48.8447
21
-18.7359
0
LINE
8
BLACK
6
CONTINUOUS
10
48.8447
20
-18.7359
11
48.9049
21
-19.1159
0
LINE
8
BLACK
6
CONTINUOUS
10
48.9049
20
-19.1159
11
48.925
21
-19.5
0
LINE
8
BLACK
6
CONTINUOUS
10
48.925
20
-19.5
11
48.9049
21
-19.8841
0
LINE
8
BLACK
6
CONTINUOUS
10
48.9049
20
-19.8841
11
48.8447
21
-20.2641
0
LINE
8
BLACK
6
CONTINUOUS
10
48.8447
20
-20.2641
11
48.7451
21
-20.6356
0
LINE
8
BLACK
6
CONTINUOUS
10
48.7451
20
-20.6356
11
48.6073
21
-20.9948
0
LINE
8
BLACK
6
CONTINUOUS
10
48.6073
20
-20.9948
11
48.4326
21
-21.3375
0
LINE
8
BLACK
6
CONTINUOUS
10
48.4326
20
-21.3375
11
48.2231
21
-21.6601
0
LINE
8
BLACK
6
CONTINUOUS
10
48.2231
20
-21.6601
11
47.9811
21
-21.9591
0
LINE
8
BLACK
6
CONTINUOUS
10
47.9811
20
-21.9591
11
47.7091
21
-22.2311
0
LINE
8
BLACK
6
CONTINUOUS
10
47.7091
20
-22.2311
11
47.4101
21
-22.4731
0
LINE
8
BLACK
6
CONTINUOUS
10
47.4101
20
-22.4731
11
47.0875
21
-22.6826
0
LINE
8
BLACK
6
CONTINUOUS
10
47.0875
20
-22.6826
11
46.7448
21
-22.8573
0
LINE
8
BLACK
6
CONTINUOUS
10
46.7448
20
-22.8573
11
46.3856
21
-22.9951
0
LINE
8
BLACK
6
CONTINUOUS
10
46.3856
20
-22.9951
11
46.0141
21
-23.0947
0
LINE
8
BLACK
6
CONTINUOUS
10
46.0141
20
-23.0947
11
45.6341
21
-23.1549
0
LINE
8
BLACK
6
CONTINUOUS
10
45.6341
20
-23.1549
11
45.25
21
-23.175
0
LINE
8
BLACK
6
CONTINUOUS
10
45.25
20
-23.175
11
44.8659
21
-23.1549
0
LINE
8
BLACK
6
CONTINUOUS
10
44.8659
20
-23.1549
11
44.4859
21
-23.0947
0
LINE
8
BLACK
6
CONTINUOUS
10
44.4859
20
-23.0947
11
44.1144
21
-22.9951
0
LINE
8
BLACK
6
CONTINUOUS
10
44.1144
20
-22.9951
11
43.7552
21
-22.8573
0
LINE
8
BLACK
6
CONTINUOUS
10
43.7552
20
-22.8573
11
43.4125
21
-22.6826
0
LINE
8
BLACK
6
CONTINUOUS
10
43.4125
20
-22.6826
11
43.0899
21
-22.4731
0
LINE
8
BLACK
6
CONTINUOUS
10
43.0899
20
-22.4731
11
42.7909
21
-22.2311
0
LINE
8
BLACK
6
CONTINUOUS
10
42.7909
20
-22.2311
11
42.5189
21
-21.9591
0
LINE
8
BLACK
6
CONTINUOUS
10
42.5189
20
-21.9591
11
42.2769
21
-21.6601
0
LINE
8
BLACK
6
CONTINUOUS
10
42.2769
20
-21.6601
11
42.0674
21
-21.3375
0
LINE
8
BLACK
6
CONTINUOUS
10
42.0674
20
-21.3375
11
41.8927
21
-20.9948
0
LINE
8
BLACK
6
CONTINUOUS
10
41.8927
20
-20.9948
11
41.7549
21
-20.6356
0
LINE
8
BLACK
6
CONTINUOUS
10
41.7549
20
-20.6356
11
41.6553
21
-20.2641
0
LINE
8
BLACK
6
CONTINUOUS
10
41.6553
20
-20.2641
11
41.5951
21
-19.8841
0
LINE
8
BLACK
6
CONTINUOUS
10
41.5951
20
-19.8841
11
41.575
21
-19.5
0
LINE
8
BLACK
6
CONTINUOUS
10
41.575
20
-19.5
11
41.5951
21
-19.1159
0
LINE
8
BLACK
6
CONTINUOUS
10
41.5951
20
-19.1159
11
41.6553
21
-18.7359
0
LINE
8
BLACK
6
CONTINUOUS
10
41.7973
20
-20.2339
11
41.8929
21
-20.5908
0
LINE
8
BLACK
6
CONTINUOUS
10
41.8929
20
-20.5908
11
42.0253
21
-20.9357
0
LINE
8
BLACK
6
CONTINUOUS
10
42.0253
20
-20.9357
11
42.1931
21
-21.2649
0
LINE
8
BLACK
6
CONTINUOUS
10
42.1931
20
-21.2649
11
42.3943
21
-21.5748
0
LINE
8
BLACK
6
CONTINUOUS
10
42.3943
20
-21.5748
11
42.6268
21
-21.8619
0
LINE
8
BLACK
6
CONTINUOUS
10
42.6268
20
-21.8619
11
42.8881
21
-22.1232
0
LINE
8
BLACK
6
CONTINUOUS
10
42.8881
20
-22.1232
11
43.1752
21
-22.3557
0
LINE
8
BLACK
6
CONTINUOUS
10
43.1752
20
-22.3557
11
43.4851
21
-22.5569
0
LINE
8
BLACK
6
CONTINUOUS
10
43.4851
20
-22.5569
11
43.8143
21
-22.7247
0
LINE
8
BLACK
6
CONTINUOUS
10
43.8143
20
-22.7247
11
44.1592
21
-22.8571
0
LINE
8
BLACK
6
CONTINUOUS
10
44.1592
20
-22.8571
11
44.5161
21
-22.9527
0
LINE
8
BLACK
6
CONTINUOUS
10
44.5161
20
-22.9527
11
44.881
21
-23.0105
0
LINE
8
BLACK
6
CONTINUOUS
10
44.881
20
-23.0105
11
45.25
21
-23.0298
0
LINE
8
BLACK
6
CONTINUOUS
10
45.25
20
-23.0298
11
45.619
21
-23.0105
0
LINE
8
BLACK
6
CONTINUOUS
10
45.619
20
-23.0105
11
45.9839
21
-22.9527
0
LINE
8
BLACK
6
CONTINUOUS
10
45.9839
20
-22.9527
11
46.3408
21
-22.8571
0
LINE
8
BLACK
6
CONTINUOUS
10
46.3408
20
-22.8571
11
46.6857
21
-22.7247
0
LINE
8
BLACK
6
CONTINUOUS
10
46.6857
20
-22.7247
11
47.0149
21
-22.5569
0
LINE
8
BLACK
6
CONTINUOUS
10
47.0149
20
-22.5569
11
47.3248
21
-22.3557
0
LINE
8
BLACK
6
CONTINUOUS
10
47.3248
20
-22.3557
11
47.6119
21
-22.1232
0
LINE
8
BLACK
6
CONTINUOUS
10
47.6119
20
-22.1232
11
47.8732
21
-21.8619
0
LINE
8
BLACK
6
CONTINUOUS
10
47.8732
20
-21.8619
11
48.1057
21
-21.5748
0
LINE
8
BLACK
6
CONTINUOUS
10
48.1057
20
-21.5748
11
48.3069
21
-21.2649
0
LINE
8
BLACK
6
CONTINUOUS
10
48.3069
20
-21.2649
11
48.4747
21
-20.9357
0
LINE
8
BLACK
6
CONTINUOUS
10
48.4747
20
-20.9357
11
48.6071
21
-20.5908
0
LINE
8
BLACK
6
CONTINUOUS
10
48.6071
20
-20.5908
11
48.7027
21
-20.2339
0
LINE
8
BLACK
6
CONTINUOUS
10
48.7027
20
-20.2339
11
48.7605
21
-19.869
0
LINE
8
BLACK
6
CONTINUOUS
10
48.7605
20
-19.869
11
48.7798
21
-19.5
0
LINE
8
BLACK
6
CONTINUOUS
10
48.7798
20
-19.5
11
48.7605
21
-19.131
0
LINE
8
BLACK
6
CONTINUOUS
10
48.7605
20
-19.131
11
48.7027
21
-18.7661
0
LINE
8
BLACK
6
CONTINUOUS
10
48.7027
20
-18.7661
11
48.6071
21
-18.4092
0
LINE
8
BLACK
6
CONTINUOUS
10
48.6071
20
-18.4092
11
48.4747
21
-18.0643
0
LINE
8
BLACK
6
CONTINUOUS
10
48.4747
20
-18.0643
11
48.3069
21
-17.7351
0
LINE
8
BLACK
6
CONTINUOUS
10
48.3069
20
-17.7351
11
48.1057
21
-17.4252
0
LINE
8
BLACK
6
CONTINUOUS
10
48.1057
20
-17.4252
11
47.8732
21
-17.1381
0
LINE
8
BLACK
6
CONTINUOUS
10
47.8732
20
-17.1381
11
47.6119
21
-16.8768
0
LINE
8
BLACK
6
CONTINUOUS
10
47.6119
20
-16.8768
11
47.3248
21
-16.6443
0
LINE
8
BLACK
6
CONTINUOUS
10
47.3248
20
-16.6443
11
47.0149
21
-16.4431
0
LINE
8
BLACK
6
CONTINUOUS
10
47.0149
20
-16.4431
11
46.6857
21
-16.2753
0
LINE
8
BLACK
6
CONTINUOUS
10
46.6857
20
-16.2753
11
46.3408
21
-16.1429
0
LINE
8
BLACK
6
CONTINUOUS
10
46.3408
20
-16.1429
11
45.9839
21
-16.0473
0
LINE
8
BLACK
6
CONTINUOUS
10
45.9839
20
-16.0473
11
45.619
21
-15.9895
0
LINE
8
BLACK
6
CONTINUOUS
10
45.619
20
-15.9895
11
45.25
21
-15.9702
0
LINE
8
BLACK
6
CONTINUOUS
10
45.25
20
-15.9702
11
44.881
21
-15.9895
0
LINE
8
BLACK
6
CONTINUOUS
10
44.881
20
-15.9895
11
44.5161
21
-16.0473
0
LINE
8
BLACK
6
CONTINUOUS
10
44.5161
20
-16.0473
11
44.1592
21
-16.1429
0
LINE
8
BLACK
6
CONTINUOUS
10
44.1592
20
-16.1429
11
43.8143
21
-16.2753
0
LINE
8
BLACK
6
CONTINUOUS
10
43.8143
20
-16.2753
11
43.4851
21
-16.4431
0
LINE
8
BLACK
6
CONTINUOUS
10
43.4851
20
-16.4431
11
43.1752
21
-16.6443
0
LINE
8
BLACK
6
CONTINUOUS
10
43.1752
20
-16.6443
11
42.8881
21
-16.8768
0
LINE
8
BLACK
6
CONTINUOUS
10
42.8881
20
-16.8768
11
42.6268
21
-17.1381
0
LINE
8
BLACK
6
CONTINUOUS
10
42.6268
20
-17.1381
11
42.3943
21
-17.4252
0
LINE
8
BLACK
6
CONTINUOUS
10
42.3943
20
-17.4252
11
42.1931
21
-17.7351
0
LINE
8
BLACK
6
CONTINUOUS
10
42.1931
20
-17.7351
11
42.0253
21
-18.0643
0
LINE
8
BLACK
6
CONTINUOUS
10
42.0253
20
-18.0643
11
41.8929
21
-18.4092
0
LINE
8
BLACK
6
CONTINUOUS
10
41.8929
20
-18.4092
11
41.7973
21
-18.7661
0
LINE
8
BLACK
6
CONTINUOUS
10
41.7973
20
-18.7661
11
41.7395
21
-19.131
0
LINE
8
BLACK
6
CONTINUOUS
10
41.7395
20
-19.131
11
41.7202
21
-19.5
0
LINE
8
BLACK
6
CONTINUOUS
10
41.7202
20
-19.5
11
41.7395
21
-19.869
0
LINE
8
BLACK
6
CONTINUOUS
10
41.7395
20
-19.869
11
41.7973
21
-20.2339
0
LINE
8
BLACK
6
CONTINUOUS
10
54.1
20
-19.1021
11
54.164
21
-18.7534
0
LINE
8
BLACK
6
CONTINUOUS
10
54.164
20
-18.7534
11
54.2665
21
-18.4141
0
LINE
8
BLACK
6
CONTINUOUS
10
54.2665
20
-18.4141
11
54.4061
21
-18.0883
0
LINE
8
BLACK
6
CONTINUOUS
10
54.4061
20
-18.0883
11
54.5812
21
-17.7801
0
LINE
8
BLACK
6
CONTINUOUS
10
54.5812
20
-17.7801
11
54.7896
21
-17.4933
0
LINE
8
BLACK
6
CONTINUOUS
10
54.7896
20
-17.4933
11
55.0286
21
-17.2315
0
LINE
8
BLACK
6
CONTINUOUS
10
55.0286
20
-17.2315
11
55.2953
21
-16.9981
0
LINE
8
BLACK
6
CONTINUOUS
10
55.2953
20
-16.9981
11
55.5863
21
-16.7958
0
LINE
8
BLACK
6
CONTINUOUS
10
55.5863
20
-16.7958
11
55.8982
21
-16.6272
0
LINE
8
BLACK
6
CONTINUOUS
10
55.8982
20
-16.6272
11
56.2268
21
-16.4944
0
LINE
8
BLACK
6
CONTINUOUS
10
56.2268
20
-16.4944
11
56.5682
21
-16.3991
0
LINE
8
BLACK
6
CONTINUOUS
10
56.5682
20
-16.3991
11
56.9181
21
-16.3424
0
LINE
8
BLACK
6
CONTINUOUS
10
56.9181
20
-16.3424
11
57.2722
21
-16.3251
0
LINE
8
BLACK
6
CONTINUOUS
10
57.2722
20
-16.3251
11
57.6259
21
-16.3473
0
LINE
8
BLACK
6
CONTINUOUS
10
57.6259
20
-16.3473
11
57.975
21
-16.4089
0
LINE
8
BLACK
6
CONTINUOUS
10
57.975
20
-16.4089
11
58.3151
21
-16.509
0
LINE
8
BLACK
6
CONTINUOUS
10
58.3151
20
-16.509
11
58.6418
21
-16.6463
0
LINE
8
BLACK
6
CONTINUOUS
10
58.6418
20
-16.6463
11
58.9512
21
-16.8193
0
LINE
8
BLACK
6
CONTINUOUS
10
58.9512
20
-16.8193
11
59.2395
21
-17.0256
0
LINE
8
BLACK
6
CONTINUOUS
10
59.2395
20
-17.0256
11
59.5029
21
-17.2628
0
LINE
8
BLACK
6
CONTINUOUS
10
59.5029
20
-17.2628
11
59.7382
21
-17.5279
0
LINE
8
BLACK
6
CONTINUOUS
10
59.7382
20
-17.5279
11
59.9426
21
-17.8175
0
LINE
8
BLACK
6
CONTINUOUS
10
59.9426
20
-17.8175
11
60.1133
21
-18.1281
0
LINE
8
BLACK
6
CONTINUOUS
10
60.1133
20
-18.1281
11
60.2484
21
-18.4558
0
LINE
8
BLACK
6
CONTINUOUS
10
60.2484
20
-18.4558
11
60.3461
21
-18.7966
0
LINE
8
BLACK
6
CONTINUOUS
10
60.3461
20
-18.7966
11
60.4052
21
-19.1461
0
LINE
8
BLACK
6
CONTINUOUS
10
60.4052
20
-19.1461
11
60.425
21
-19.5
0
LINE
8
BLACK
6
CONTINUOUS
10
60.425
20
-19.5
11
60.4238
21
-19.5887
0
LINE
8
BLACK
6
CONTINUOUS
10
60.4238
20
-19.5887
11
60.3941
21
-19.9419
0
LINE
8
BLACK
6
CONTINUOUS
10
60.3941
20
-19.9419
11
60.3253
21
-20.2896
0
LINE
8
BLACK
6
CONTINUOUS
10
60.3253
20
-20.2896
11
60.2181
21
-20.6275
0
LINE
8
BLACK
6
CONTINUOUS
10
60.2181
20
-20.6275
11
60.0739
21
-20.9513
0
LINE
8
BLACK
6
CONTINUOUS
10
60.0739
20
-20.9513
11
59.8945
21
-21.257
0
LINE
8
BLACK
6
CONTINUOUS
10
59.8945
20
-21.257
11
59.6822
21
-21.5409
0
LINE
8
BLACK
6
CONTINUOUS
10
59.6822
20
-21.5409
11
59.4395
21
-21.7992
0
LINE
8
BLACK
6
CONTINUOUS
10
59.4395
20
-21.7992
11
59.1696
21
-22.029
0
LINE
8
BLACK
6
CONTINUOUS
10
59.1696
20
-22.029
11
58.8757
21
-22.2272
0
LINE
8
BLACK
6
CONTINUOUS
10
58.8757
20
-22.2272
11
58.5616
21
-22.3914
0
LINE
8
BLACK
6
CONTINUOUS
10
58.5616
20
-22.3914
11
58.2311
21
-22.5196
0
LINE
8
BLACK
6
CONTINUOUS
10
58.2311
20
-22.5196
11
57.8884
21
-22.6102
0
LINE
8
BLACK
6
CONTINUOUS
10
57.8884
20
-22.6102
11
57.5378
21
-22.6619
0
LINE
8
BLACK
6
CONTINUOUS
10
57.5378
20
-22.6619
11
57.1835
21
-22.6743
0
LINE
8
BLACK
6
CONTINUOUS
10
57.1835
20
-22.6743
11
56.8301
21
-22.6471
0
LINE
8
BLACK
6
CONTINUOUS
10
56.8301
20
-22.6471
11
56.4819
21
-22.5807
0
LINE
8
BLACK
6
CONTINUOUS
10
56.4819
20
-22.5807
11
56.1433
21
-22.4759
0
LINE
8
BLACK
6
CONTINUOUS
10
56.1433
20
-22.4759
11
55.8185
21
-22.334
0
LINE
8
BLACK
6
CONTINUOUS
10
55.8185
20
-22.334
11
55.5115
21
-22.1567
0
LINE
8
BLACK
6
CONTINUOUS
10
55.5115
20
-22.1567
11
55.2262
21
-21.9464
0
LINE
8
BLACK
6
CONTINUOUS
10
55.2262
20
-21.9464
11
54.9661
21
-21.7055
0
LINE
8
BLACK
6
CONTINUOUS
10
54.9661
20
-21.7055
11
54.7345
21
-21.4372
0
LINE
8
BLACK
6
CONTINUOUS
10
54.7345
20
-21.4372
11
54.5342
21
-21.1447
0
LINE
8
BLACK
6
CONTINUOUS
10
54.5342
20
-21.1447
11
54.3678
21
-20.8318
0
LINE
8
BLACK
6
CONTINUOUS
10
54.3678
20
-20.8318
11
54.2373
21
-20.5022
0
LINE
8
BLACK
6
CONTINUOUS
10
54.2373
20
-20.5022
11
54.1444
21
-20.1601
0
LINE
8
BLACK
6
CONTINUOUS
10
54.1444
20
-20.1601
11
54.0902
21
-19.8098
0
LINE
8
BLACK
6
CONTINUOUS
10
54.0902
20
-19.8098
11
54.0754
21
-19.4577
0
LINE
8
BLACK
6
CONTINUOUS
10
54.0754
20
-19.4577
11
54.0753
21
-19.4557
0
LINE
8
BLACK
6
CONTINUOUS
10
54.0753
20
-19.4557
11
54.1
21
-19.1021
0
LINE
8
BLACK
6
CONTINUOUS
10
54.2864
20
-20.1299
11
54.3751
21
-20.4563
0
LINE
8
BLACK
6
CONTINUOUS
10
54.3751
20
-20.4563
11
54.4996
21
-20.7708
0
LINE
8
BLACK
6
CONTINUOUS
10
54.4996
20
-20.7708
11
54.6584
21
-21.0695
0
LINE
8
BLACK
6
CONTINUOUS
10
54.6584
20
-21.0695
11
54.8495
21
-21.3486
0
LINE
8
BLACK
6
CONTINUOUS
10
54.8495
20
-21.3486
11
55.0706
21
-21.6047
0
LINE
8
BLACK
6
CONTINUOUS
10
55.0706
20
-21.6047
11
55.3188
21
-21.8345
0
LINE
8
BLACK
6
CONTINUOUS
10
55.3188
20
-21.8345
11
55.591
21
-22.0352
0
LINE
8
BLACK
6
CONTINUOUS
10
55.591
20
-22.0352
11
55.8839
21
-22.2043
0
LINE
8
BLACK
6
CONTINUOUS
10
55.8839
20
-22.2043
11
56.1939
21
-22.3397
0
LINE
8
BLACK
6
CONTINUOUS
10
56.1939
20
-22.3397
11
56.517
21
-22.4398
0
LINE
8
BLACK
6
CONTINUOUS
10
56.517
20
-22.4398
11
56.8493
21
-22.5032
0
LINE
8
BLACK
6
CONTINUOUS
10
56.8493
20
-22.5032
11
57.1865
21
-22.5291
0
LINE
8
BLACK
6
CONTINUOUS
10
57.1865
20
-22.5291
11
57.5246
21
-22.5173
0
LINE
8
BLACK
6
CONTINUOUS
10
57.5246
20
-22.5173
11
57.8592
21
-22.4679
0
LINE
8
BLACK
6
CONTINUOUS
10
57.8592
20
-22.4679
11
58.1862
21
-22.3815
0
LINE
8
BLACK
6
CONTINUOUS
10
58.1862
20
-22.3815
11
58.5016
21
-22.2592
0
LINE
8
BLACK
6
CONTINUOUS
10
58.5016
20
-22.2592
11
58.8014
21
-22.1024
0
LINE
8
BLACK
6
CONTINUOUS
10
58.8014
20
-22.1024
11
59.0818
21
-21.9133
0
LINE
8
BLACK
6
CONTINUOUS
10
59.0818
20
-21.9133
11
59.3394
21
-21.6941
0
LINE
8
BLACK
6
CONTINUOUS
10
59.3394
20
-21.6941
11
59.5709
21
-21.4475
0
LINE
8
BLACK
6
CONTINUOUS
10
59.5709
20
-21.4475
11
59.7736
21
-21.1766
0
LINE
8
BLACK
6
CONTINUOUS
10
59.7736
20
-21.1766
11
59.9447
21
-20.8849
0
LINE
8
BLACK
6
CONTINUOUS
10
59.9447
20
-20.8849
11
60.0823
21
-20.5759
0
LINE
8
BLACK
6
CONTINUOUS
10
60.0823
20
-20.5759
11
60.1846
21
-20.2535
0
LINE
8
BLACK
6
CONTINUOUS
10
60.1846
20
-20.2535
11
60.2503
21
-19.9217
0
LINE
8
BLACK
6
CONTINUOUS
10
60.2503
20
-19.9217
11
60.2786
21
-19.5846
0
LINE
8
BLACK
6
CONTINUOUS
10
60.2786
20
-19.5846
11
60.2798
21
-19.5
0
LINE
8
BLACK
6
CONTINUOUS
10
60.2798
20
-19.5
11
60.2609
21
-19.1623
0
LINE
8
BLACK
6
CONTINUOUS
10
60.2609
20
-19.1623
11
60.2045
21
-18.8288
0
LINE
8
BLACK
6
CONTINUOUS
10
60.2045
20
-18.8288
11
60.1112
21
-18.5036
0
LINE
8
BLACK
6
CONTINUOUS
10
60.1112
20
-18.5036
11
59.9823
21
-18.1909
0
LINE
8
BLACK
6
CONTINUOUS
10
59.9823
20
-18.1909
11
59.8194
21
-17.8945
0
LINE
8
BLACK
6
CONTINUOUS
10
59.8194
20
-17.8945
11
59.6244
21
-17.6181
0
LINE
8
BLACK
6
CONTINUOUS
10
59.6244
20
-17.6181
11
59.3998
21
-17.3651
0
LINE
8
BLACK
6
CONTINUOUS
10
59.3998
20
-17.3651
11
59.1485
21
-17.1388
0
LINE
8
BLACK
6
CONTINUOUS
10
59.1485
20
-17.1388
11
58.8734
21
-16.9419
0
LINE
8
BLACK
6
CONTINUOUS
10
58.8734
20
-16.9419
11
58.5782
21
-16.7769
0
LINE
8
BLACK
6
CONTINUOUS
10
58.5782
20
-16.7769
11
58.2663
21
-16.6458
0
LINE
8
BLACK
6
CONTINUOUS
10
58.2663
20
-16.6458
11
57.9418
21
-16.5503
0
LINE
8
BLACK
6
CONTINUOUS
10
57.9418
20
-16.5503
11
57.6087
21
-16.4915
0
LINE
8
BLACK
6
CONTINUOUS
10
57.6087
20
-16.4915
11
57.2712
21
-16.4703
0
LINE
8
BLACK
6
CONTINUOUS
10
57.2712
20
-16.4703
11
56.9333
21
-16.4868
0
LINE
8
BLACK
6
CONTINUOUS
10
56.9333
20
-16.4868
11
56.5994
21
-16.5409
0
LINE
8
BLACK
6
CONTINUOUS
10
56.5994
20
-16.5409
11
56.2736
21
-16.6319
0
LINE
8
BLACK
6
CONTINUOUS
10
56.2736
20
-16.6319
11
55.96
21
-16.7586
0
LINE
8
BLACK
6
CONTINUOUS
10
55.96
20
-16.7586
11
55.6624
21
-16.9195
0
LINE
8
BLACK
6
CONTINUOUS
10
55.6624
20
-16.9195
11
55.3847
21
-17.1125
0
LINE
8
BLACK
6
CONTINUOUS
10
55.3847
20
-17.1125
11
55.1302
21
-17.3353
0
LINE
8
BLACK
6
CONTINUOUS
10
55.1302
20
-17.3353
11
54.9021
21
-17.5851
0
LINE
8
BLACK
6
CONTINUOUS
10
54.9021
20
-17.5851
11
54.7033
21
-17.8588
0
LINE
8
BLACK
6
CONTINUOUS
10
54.7033
20
-17.8588
11
54.5362
21
-18.1529
0
LINE
8
BLACK
6
CONTINUOUS
10
54.5362
20
-18.1529
11
54.403
21
-18.4638
0
LINE
8
BLACK
6
CONTINUOUS
10
54.403
20
-18.4638
11
54.3052
21
-18.7876
0
LINE
8
BLACK
6
CONTINUOUS
10
54.3052
20
-18.7876
11
54.2441
21
-19.1203
0
LINE
8
BLACK
6
CONTINUOUS
10
54.2441
20
-19.1203
11
54.2205
21
-19.4577
0
LINE
8
BLACK
6
CONTINUOUS
10
54.2205
20
-19.4577
11
54.2347
21
-19.7957
0
LINE
8
BLACK
6
CONTINUOUS
10
54.2347
20
-19.7957
11
54.2864
21
-20.1299
  0
ENDSEC
  0
EOF
